<svg xmlns="http://www.w3.org/2000/svg" xmlns:xlink="http://www.w3.org/1999/xlink" width="1920" zoomAndPan="magnify" viewBox="0 0 1440 809.999993" height="1080" preserveAspectRatio="xMidYMid meet" version="1.0"><defs><g/></defs><rect x="-144" width="1728" fill="#ffffff" y="-80.999999" height="971.999992" fill-opacity="1"/><rect x="-144" width="1728" fill="#fffff9" y="-80.999999" height="971.999992" fill-opacity="1"/><g fill="#5a5a56" fill-opacity="1"><g transform="translate(628.931987, 419.624999)"><g><path d="M 1.78125 -27.15625 L 1.78125 -30.5625 L 25 -30.5625 L 25 -27.15625 L 15.34375 -27.15625 L 15.34375 0 L 11.484375 0 L 11.484375 -27.15625 Z M 1.78125 -27.15625 "/></g></g><g transform="translate(655.715189, 419.624999)"><g><path d="M 6.75 -13.5 L 6.75 0 L 3.09375 0 L 3.09375 -30.5625 L 6.75 -30.5625 L 6.75 -17.171875 L 6.015625 -17.171875 C 6.710938 -19.242188 7.703125 -20.726562 8.984375 -21.625 C 10.265625 -22.519531 11.773438 -22.96875 13.515625 -22.96875 C 15.046875 -22.96875 16.398438 -22.648438 17.578125 -22.015625 C 18.753906 -21.378906 19.671875 -20.421875 20.328125 -19.140625 C 20.992188 -17.867188 21.328125 -16.257812 21.328125 -14.3125 L 21.328125 0 L 17.65625 0 L 17.65625 -14.03125 C 17.65625 -15.800781 17.195312 -17.179688 16.28125 -18.171875 C 15.363281 -19.171875 14.109375 -19.671875 12.515625 -19.671875 C 11.421875 -19.671875 10.4375 -19.4375 9.5625 -18.96875 C 8.695312 -18.5 8.007812 -17.804688 7.5 -16.890625 C 7 -15.984375 6.75 -14.851562 6.75 -13.5 Z M 6.75 -13.5 "/></g></g><g transform="translate(680.139992, 419.624999)"><g><path d="M 12.578125 0.5 C 10.390625 0.5 8.5 0.00390625 6.90625 -0.984375 C 5.320312 -1.972656 4.101562 -3.34375 3.25 -5.09375 C 2.40625 -6.84375 1.984375 -8.867188 1.984375 -11.171875 C 1.984375 -13.484375 2.40625 -15.523438 3.25 -17.296875 C 4.09375 -19.078125 5.28125 -20.46875 6.8125 -21.46875 C 8.351562 -22.46875 10.144531 -22.96875 12.1875 -22.96875 C 13.46875 -22.96875 14.703125 -22.75 15.890625 -22.3125 C 17.078125 -21.882812 18.144531 -21.207031 19.09375 -20.28125 C 20.039062 -19.363281 20.785156 -18.179688 21.328125 -16.734375 C 21.878906 -15.285156 22.15625 -13.554688 22.15625 -11.546875 L 22.15625 -10.125 L 4.34375 -10.125 L 4.34375 -13.203125 L 20.15625 -13.203125 L 18.5 -12.09375 C 18.5 -13.582031 18.253906 -14.898438 17.765625 -16.046875 C 17.285156 -17.203125 16.578125 -18.101562 15.640625 -18.75 C 14.703125 -19.40625 13.550781 -19.734375 12.1875 -19.734375 C 10.832031 -19.734375 9.664062 -19.40625 8.6875 -18.75 C 7.707031 -18.09375 6.957031 -17.21875 6.4375 -16.125 C 5.914062 -15.039062 5.65625 -13.847656 5.65625 -12.546875 L 5.65625 -10.625 C 5.65625 -8.96875 5.9375 -7.550781 6.5 -6.375 C 7.070312 -5.195312 7.878906 -4.300781 8.921875 -3.6875 C 9.972656 -3.070312 11.195312 -2.765625 12.59375 -2.765625 C 13.519531 -2.765625 14.351562 -2.898438 15.09375 -3.171875 C 15.84375 -3.453125 16.484375 -3.859375 17.015625 -4.390625 C 17.554688 -4.921875 17.960938 -5.578125 18.234375 -6.359375 L 21.78125 -5.578125 C 21.4375 -4.390625 20.835938 -3.335938 19.984375 -2.421875 C 19.140625 -1.503906 18.085938 -0.785156 16.828125 -0.265625 C 15.566406 0.242188 14.148438 0.5 12.578125 0.5 Z M 12.578125 0.5 "/></g></g><g transform="translate(704.195655, 419.624999)"><g/></g><g transform="translate(715.721045, 419.624999)"><g><path d="M 12.578125 0.5 C 10.390625 0.5 8.5 0.00390625 6.90625 -0.984375 C 5.320312 -1.972656 4.101562 -3.34375 3.25 -5.09375 C 2.40625 -6.84375 1.984375 -8.867188 1.984375 -11.171875 C 1.984375 -13.484375 2.40625 -15.523438 3.25 -17.296875 C 4.09375 -19.078125 5.28125 -20.46875 6.8125 -21.46875 C 8.351562 -22.46875 10.144531 -22.96875 12.1875 -22.96875 C 13.46875 -22.96875 14.703125 -22.75 15.890625 -22.3125 C 17.078125 -21.882812 18.144531 -21.207031 19.09375 -20.28125 C 20.039062 -19.363281 20.785156 -18.179688 21.328125 -16.734375 C 21.878906 -15.285156 22.15625 -13.554688 22.15625 -11.546875 L 22.15625 -10.125 L 4.34375 -10.125 L 4.34375 -13.203125 L 20.15625 -13.203125 L 18.5 -12.09375 C 18.5 -13.582031 18.253906 -14.898438 17.765625 -16.046875 C 17.285156 -17.203125 16.578125 -18.101562 15.640625 -18.75 C 14.703125 -19.40625 13.550781 -19.734375 12.1875 -19.734375 C 10.832031 -19.734375 9.664062 -19.40625 8.6875 -18.75 C 7.707031 -18.09375 6.957031 -17.21875 6.4375 -16.125 C 5.914062 -15.039062 5.65625 -13.847656 5.65625 -12.546875 L 5.65625 -10.625 C 5.65625 -8.96875 5.9375 -7.550781 6.5 -6.375 C 7.070312 -5.195312 7.878906 -4.300781 8.921875 -3.6875 C 9.972656 -3.070312 11.195312 -2.765625 12.59375 -2.765625 C 13.519531 -2.765625 14.351562 -2.898438 15.09375 -3.171875 C 15.84375 -3.453125 16.484375 -3.859375 17.015625 -4.390625 C 17.554688 -4.921875 17.960938 -5.578125 18.234375 -6.359375 L 21.78125 -5.578125 C 21.4375 -4.390625 20.835938 -3.335938 19.984375 -2.421875 C 19.140625 -1.503906 18.085938 -0.785156 16.828125 -0.265625 C 15.566406 0.242188 14.148438 0.5 12.578125 0.5 Z M 12.578125 0.5 "/></g></g><g transform="translate(739.776708, 419.624999)"><g><path d="M 6.75 -13.5 L 6.75 0 L 3.09375 0 L 3.09375 -22.640625 L 6.609375 -22.640625 L 6.625 -17.171875 L 6.015625 -17.171875 C 6.710938 -19.242188 7.703125 -20.726562 8.984375 -21.625 C 10.265625 -22.519531 11.773438 -22.96875 13.515625 -22.96875 C 15.046875 -22.96875 16.394531 -22.648438 17.5625 -22.015625 C 18.726562 -21.378906 19.644531 -20.421875 20.3125 -19.140625 C 20.976562 -17.867188 21.3125 -16.257812 21.3125 -14.3125 L 21.3125 0 L 17.65625 0 L 17.65625 -14.03125 C 17.65625 -15.800781 17.195312 -17.179688 16.28125 -18.171875 C 15.363281 -19.171875 14.109375 -19.671875 12.515625 -19.671875 C 11.421875 -19.671875 10.4375 -19.4375 9.5625 -18.96875 C 8.695312 -18.5 8.007812 -17.804688 7.5 -16.890625 C 7 -15.984375 6.75 -14.851562 6.75 -13.5 Z M 6.75 -13.5 "/></g></g><g transform="translate(764.181004, 419.624999)"><g><path d="M 11.625 0.46875 C 9.726562 0.46875 8.054688 -0.0078125 6.609375 -0.96875 C 5.160156 -1.9375 4.023438 -3.296875 3.203125 -5.046875 C 2.390625 -6.804688 1.984375 -8.882812 1.984375 -11.28125 C 1.984375 -13.65625 2.390625 -15.71875 3.203125 -17.46875 C 4.023438 -19.21875 5.160156 -20.570312 6.609375 -21.53125 C 8.066406 -22.488281 9.738281 -22.96875 11.625 -22.96875 C 12.988281 -22.96875 14.109375 -22.742188 14.984375 -22.296875 C 15.859375 -21.859375 16.554688 -21.335938 17.078125 -20.734375 C 17.597656 -20.128906 18.007812 -19.578125 18.3125 -19.078125 L 18.546875 -19.078125 L 18.546875 -30.5625 L 22.1875 -30.5625 L 22.1875 0 L 18.65625 0 L 18.65625 -3.484375 L 18.328125 -3.484375 C 18.015625 -2.960938 17.59375 -2.394531 17.0625 -1.78125 C 16.53125 -1.164062 15.828125 -0.632812 14.953125 -0.1875 C 14.078125 0.25 12.96875 0.46875 11.625 0.46875 Z M 12.15625 -2.796875 C 13.539062 -2.796875 14.710938 -3.148438 15.671875 -3.859375 C 16.640625 -4.578125 17.375 -5.578125 17.875 -6.859375 C 18.382812 -8.140625 18.640625 -9.617188 18.640625 -11.296875 C 18.640625 -12.984375 18.390625 -14.453125 17.890625 -15.703125 C 17.390625 -16.960938 16.65625 -17.941406 15.6875 -18.640625 C 14.726562 -19.347656 13.550781 -19.703125 12.15625 -19.703125 C 10.757812 -19.703125 9.578125 -19.335938 8.609375 -18.609375 C 7.648438 -17.890625 6.921875 -16.894531 6.421875 -15.625 C 5.929688 -14.363281 5.6875 -12.921875 5.6875 -11.296875 C 5.6875 -9.671875 5.929688 -8.210938 6.421875 -6.921875 C 6.921875 -5.640625 7.65625 -4.628906 8.625 -3.890625 C 9.601562 -3.160156 10.78125 -2.796875 12.15625 -2.796875 Z M 12.15625 -2.796875 "/></g></g><g transform="translate(789.467135, 419.624999)"><g><path d="M 8.015625 -8.984375 L 8.015625 -9.6875 C 8.015625 -11.46875 8.203125 -12.84375 8.578125 -13.8125 C 8.953125 -14.789062 9.488281 -15.566406 10.1875 -16.140625 C 10.882812 -16.722656 11.707031 -17.3125 12.65625 -17.90625 C 13.613281 -18.519531 14.378906 -19.25 14.953125 -20.09375 C 15.535156 -20.945312 15.828125 -21.929688 15.828125 -23.046875 C 15.828125 -24.015625 15.601562 -24.84375 15.15625 -25.53125 C 14.707031 -26.226562 14.097656 -26.769531 13.328125 -27.15625 C 12.566406 -27.539062 11.691406 -27.734375 10.703125 -27.734375 C 9.804688 -27.734375 8.96875 -27.546875 8.1875 -27.171875 C 7.40625 -26.804688 6.765625 -26.242188 6.265625 -25.484375 C 5.773438 -24.722656 5.503906 -23.753906 5.453125 -22.578125 L 1.59375 -22.578125 C 1.65625 -24.335938 2.09375 -25.84375 2.90625 -27.09375 C 3.71875 -28.351562 4.800781 -29.316406 6.15625 -29.984375 C 7.507812 -30.648438 9.023438 -30.984375 10.703125 -30.984375 C 12.484375 -30.984375 14.035156 -30.640625 15.359375 -29.953125 C 16.679688 -29.265625 17.707031 -28.3125 18.4375 -27.09375 C 19.175781 -25.882812 19.546875 -24.503906 19.546875 -22.953125 C 19.546875 -21.335938 19.179688 -19.929688 18.453125 -18.734375 C 17.734375 -17.535156 16.695312 -16.515625 15.34375 -15.671875 C 14.445312 -15.109375 13.734375 -14.578125 13.203125 -14.078125 C 12.671875 -13.585938 12.285156 -13.003906 12.046875 -12.328125 C 11.816406 -11.660156 11.703125 -10.75 11.703125 -9.59375 L 11.703125 -8.984375 Z M 9.90625 0.28125 C 9.15625 0.28125 8.507812 0.015625 7.96875 -0.515625 C 7.4375 -1.046875 7.171875 -1.679688 7.171875 -2.421875 C 7.171875 -3.171875 7.4375 -3.8125 7.96875 -4.34375 C 8.507812 -4.875 9.15625 -5.140625 9.90625 -5.140625 C 10.65625 -5.140625 11.289062 -4.875 11.8125 -4.34375 C 12.34375 -3.8125 12.609375 -3.171875 12.609375 -2.421875 C 12.609375 -1.679688 12.34375 -1.046875 11.8125 -0.515625 C 11.289062 0.015625 10.65625 0.28125 9.90625 0.28125 Z M 9.90625 0.28125 "/></g></g></g><g fill="#5a5a56" fill-opacity="1"><g transform="translate(1154.154095, 724.949984)"><g><path d="M 1.265625 0 L 1.265625 -10.90625 L 3.203125 -10.90625 L 5.90625 -3.984375 C 5.96875 -3.828125 6.039062 -3.628906 6.125 -3.390625 C 6.207031 -3.148438 6.296875 -2.894531 6.390625 -2.625 C 6.484375 -2.351562 6.570312 -2.082031 6.65625 -1.8125 C 6.738281 -1.539062 6.804688 -1.296875 6.859375 -1.078125 L 6.5625 -1.078125 C 6.625 -1.285156 6.695312 -1.519531 6.78125 -1.78125 C 6.863281 -2.050781 6.945312 -2.320312 7.03125 -2.59375 C 7.125 -2.875 7.210938 -3.132812 7.296875 -3.375 C 7.378906 -3.625 7.453125 -3.828125 7.515625 -3.984375 L 10.1875 -10.90625 L 12.125 -10.90625 L 12.125 0 L 10.78125 0 L 10.78125 -6.25 C 10.78125 -6.476562 10.78125 -6.734375 10.78125 -7.015625 C 10.78125 -7.304688 10.78125 -7.601562 10.78125 -7.90625 C 10.789062 -8.21875 10.800781 -8.53125 10.8125 -8.84375 C 10.820312 -9.164062 10.828125 -9.476562 10.828125 -9.78125 L 10.96875 -9.78125 C 10.863281 -9.4375 10.75 -9.09375 10.625 -8.75 C 10.507812 -8.414062 10.398438 -8.085938 10.296875 -7.765625 C 10.191406 -7.453125 10.085938 -7.164062 9.984375 -6.90625 C 9.890625 -6.644531 9.8125 -6.425781 9.75 -6.25 L 7.28125 0 L 6.109375 0 L 3.609375 -6.25 C 3.546875 -6.425781 3.46875 -6.640625 3.375 -6.890625 C 3.28125 -7.140625 3.175781 -7.421875 3.0625 -7.734375 C 2.957031 -8.046875 2.84375 -8.375 2.71875 -8.71875 C 2.601562 -9.070312 2.484375 -9.425781 2.359375 -9.78125 L 2.515625 -9.78125 C 2.523438 -9.507812 2.535156 -9.21875 2.546875 -8.90625 C 2.554688 -8.59375 2.5625 -8.28125 2.5625 -7.96875 C 2.570312 -7.65625 2.578125 -7.347656 2.578125 -7.046875 C 2.578125 -6.753906 2.578125 -6.488281 2.578125 -6.25 L 2.578125 0 Z M 1.265625 0 "/></g></g><g transform="translate(1167.550091, 724.949984)"><g><path d="M 3.40625 0.171875 C 2.894531 0.171875 2.429688 0.078125 2.015625 -0.109375 C 1.597656 -0.296875 1.265625 -0.578125 1.015625 -0.953125 C 0.765625 -1.328125 0.640625 -1.78125 0.640625 -2.3125 C 0.640625 -2.769531 0.726562 -3.144531 0.90625 -3.4375 C 1.09375 -3.726562 1.335938 -3.957031 1.640625 -4.125 C 1.953125 -4.289062 2.296875 -4.414062 2.671875 -4.5 C 3.046875 -4.582031 3.421875 -4.644531 3.796875 -4.6875 C 4.296875 -4.757812 4.691406 -4.8125 4.984375 -4.84375 C 5.285156 -4.875 5.507812 -4.929688 5.65625 -5.015625 C 5.800781 -5.097656 5.875 -5.238281 5.875 -5.4375 L 5.875 -5.484375 C 5.875 -5.816406 5.804688 -6.097656 5.671875 -6.328125 C 5.546875 -6.566406 5.351562 -6.742188 5.09375 -6.859375 C 4.84375 -6.984375 4.53125 -7.046875 4.15625 -7.046875 C 3.769531 -7.046875 3.4375 -6.984375 3.15625 -6.859375 C 2.882812 -6.742188 2.660156 -6.59375 2.484375 -6.40625 C 2.316406 -6.21875 2.195312 -6.019531 2.125 -5.8125 L 0.859375 -6.140625 C 1.023438 -6.640625 1.273438 -7.035156 1.609375 -7.328125 C 1.953125 -7.628906 2.34375 -7.847656 2.78125 -7.984375 C 3.21875 -8.128906 3.664062 -8.203125 4.125 -8.203125 C 4.4375 -8.203125 4.769531 -8.160156 5.125 -8.078125 C 5.476562 -8.003906 5.804688 -7.863281 6.109375 -7.65625 C 6.421875 -7.457031 6.675781 -7.171875 6.875 -6.796875 C 7.070312 -6.429688 7.171875 -5.960938 7.171875 -5.390625 L 7.171875 0 L 5.890625 0 L 5.890625 -1.109375 L 5.8125 -1.109375 C 5.71875 -0.921875 5.570312 -0.726562 5.375 -0.53125 C 5.175781 -0.332031 4.914062 -0.164062 4.59375 -0.03125 C 4.269531 0.101562 3.875 0.171875 3.40625 0.171875 Z M 3.625 -0.984375 C 4.113281 -0.984375 4.523438 -1.078125 4.859375 -1.265625 C 5.191406 -1.453125 5.441406 -1.695312 5.609375 -2 C 5.785156 -2.300781 5.875 -2.617188 5.875 -2.953125 L 5.875 -4.046875 C 5.820312 -3.992188 5.707031 -3.941406 5.53125 -3.890625 C 5.363281 -3.835938 5.171875 -3.789062 4.953125 -3.75 C 4.734375 -3.71875 4.515625 -3.6875 4.296875 -3.65625 C 4.078125 -3.632812 3.894531 -3.613281 3.75 -3.59375 C 3.4375 -3.550781 3.140625 -3.484375 2.859375 -3.390625 C 2.585938 -3.296875 2.367188 -3.15625 2.203125 -2.96875 C 2.035156 -2.789062 1.953125 -2.546875 1.953125 -2.234375 C 1.953125 -1.960938 2.023438 -1.734375 2.171875 -1.546875 C 2.316406 -1.359375 2.515625 -1.21875 2.765625 -1.125 C 3.015625 -1.03125 3.300781 -0.984375 3.625 -0.984375 Z M 3.625 -0.984375 "/></g></g><g transform="translate(1175.826457, 724.949984)"><g><path d="M 2.40625 -4.8125 L 2.40625 0 L 1.109375 0 L 1.109375 -8.09375 L 2.359375 -8.09375 L 2.359375 -6.125 L 2.140625 -6.125 C 2.390625 -6.875 2.742188 -7.40625 3.203125 -7.71875 C 3.660156 -8.039062 4.203125 -8.203125 4.828125 -8.203125 C 5.367188 -8.203125 5.847656 -8.085938 6.265625 -7.859375 C 6.691406 -7.628906 7.019531 -7.285156 7.25 -6.828125 C 7.488281 -6.378906 7.609375 -5.804688 7.609375 -5.109375 L 7.609375 0 L 6.3125 0 L 6.3125 -5.015625 C 6.3125 -5.648438 6.144531 -6.144531 5.8125 -6.5 C 5.488281 -6.851562 5.039062 -7.03125 4.46875 -7.03125 C 4.070312 -7.03125 3.71875 -6.945312 3.40625 -6.78125 C 3.101562 -6.613281 2.859375 -6.363281 2.671875 -6.03125 C 2.492188 -5.707031 2.40625 -5.300781 2.40625 -4.8125 Z M 2.40625 -4.8125 "/></g></g><g transform="translate(1184.542277, 724.949984)"><g><path d="M 1.109375 0 L 1.109375 -8.09375 L 2.40625 -8.09375 L 2.40625 0 Z M 1.75 -9.46875 C 1.507812 -9.46875 1.296875 -9.550781 1.109375 -9.71875 C 0.929688 -9.882812 0.84375 -10.085938 0.84375 -10.328125 C 0.84375 -10.566406 0.929688 -10.769531 1.109375 -10.9375 C 1.296875 -11.113281 1.507812 -11.203125 1.75 -11.203125 C 2 -11.203125 2.210938 -11.113281 2.390625 -10.9375 C 2.566406 -10.769531 2.65625 -10.566406 2.65625 -10.328125 C 2.65625 -10.085938 2.566406 -9.882812 2.390625 -9.71875 C 2.210938 -9.550781 2 -9.46875 1.75 -9.46875 Z M 1.75 -9.46875 "/></g></g><g transform="translate(1188.057902, 724.949984)"><g><path d="M 4.8125 -8.09375 L 4.8125 -6.96875 L 0.140625 -6.96875 L 0.140625 -8.09375 Z M 1.703125 0 L 1.703125 -9.25 C 1.703125 -9.695312 1.804688 -10.070312 2.015625 -10.375 C 2.222656 -10.6875 2.5 -10.921875 2.84375 -11.078125 C 3.1875 -11.234375 3.5625 -11.3125 3.96875 -11.3125 C 4.238281 -11.3125 4.472656 -11.289062 4.671875 -11.25 C 4.867188 -11.207031 5.007812 -11.171875 5.09375 -11.140625 L 4.8125 -10.03125 C 4.738281 -10.050781 4.640625 -10.070312 4.515625 -10.09375 C 4.398438 -10.113281 4.265625 -10.125 4.109375 -10.125 C 3.710938 -10.125 3.425781 -10.023438 3.25 -9.828125 C 3.082031 -9.640625 3 -9.351562 3 -8.96875 L 3 0 Z M 1.703125 0 "/></g></g></g><g fill="#5a5a56" fill-opacity="1"><g transform="translate(1193.023722, 724.949984)"><g><path d="M 4.484375 0.171875 C 3.703125 0.171875 3.03125 0 2.46875 -0.34375 C 1.90625 -0.695312 1.46875 -1.1875 1.15625 -1.8125 C 0.851562 -2.4375 0.703125 -3.160156 0.703125 -3.984375 C 0.703125 -4.816406 0.851562 -5.550781 1.15625 -6.1875 C 1.457031 -6.820312 1.882812 -7.316406 2.4375 -7.671875 C 2.988281 -8.023438 3.625 -8.203125 4.34375 -8.203125 C 4.8125 -8.203125 5.253906 -8.125 5.671875 -7.96875 C 6.097656 -7.8125 6.476562 -7.566406 6.8125 -7.234375 C 7.15625 -6.910156 7.421875 -6.488281 7.609375 -5.96875 C 7.804688 -5.457031 7.90625 -4.84375 7.90625 -4.125 L 7.90625 -3.625 L 1.546875 -3.625 L 1.546875 -4.71875 L 7.203125 -4.71875 L 6.609375 -4.328125 C 6.609375 -4.859375 6.519531 -5.328125 6.34375 -5.734375 C 6.175781 -6.140625 5.921875 -6.457031 5.578125 -6.6875 C 5.242188 -6.925781 4.832031 -7.046875 4.34375 -7.046875 C 3.863281 -7.046875 3.445312 -6.925781 3.09375 -6.6875 C 2.75 -6.457031 2.484375 -6.144531 2.296875 -5.75 C 2.109375 -5.363281 2.015625 -4.941406 2.015625 -4.484375 L 2.015625 -3.796875 C 2.015625 -3.203125 2.113281 -2.691406 2.3125 -2.265625 C 2.519531 -1.847656 2.8125 -1.53125 3.1875 -1.3125 C 3.5625 -1.09375 4 -0.984375 4.5 -0.984375 C 4.832031 -0.984375 5.128906 -1.03125 5.390625 -1.125 C 5.660156 -1.226562 5.890625 -1.375 6.078125 -1.5625 C 6.265625 -1.757812 6.410156 -1.992188 6.515625 -2.265625 L 7.78125 -2 C 7.65625 -1.570312 7.441406 -1.191406 7.140625 -0.859375 C 6.835938 -0.535156 6.457031 -0.28125 6 -0.09375 C 5.550781 0.0820312 5.046875 0.171875 4.484375 0.171875 Z M 4.484375 0.171875 "/></g></g><g transform="translate(1201.61503, 724.949984)"><g><path d="M 3.875 0.171875 C 3.3125 0.171875 2.8125 0.0859375 2.375 -0.078125 C 1.9375 -0.242188 1.570312 -0.492188 1.28125 -0.828125 C 1 -1.160156 0.816406 -1.570312 0.734375 -2.0625 L 1.984375 -2.296875 C 2.085938 -1.835938 2.296875 -1.5 2.609375 -1.28125 C 2.929688 -1.0625 3.347656 -0.953125 3.859375 -0.953125 C 4.410156 -0.953125 4.851562 -1.070312 5.1875 -1.3125 C 5.53125 -1.5625 5.703125 -1.851562 5.703125 -2.1875 C 5.703125 -2.46875 5.597656 -2.703125 5.390625 -2.890625 C 5.191406 -3.078125 4.894531 -3.210938 4.5 -3.296875 L 3.171875 -3.625 C 2.429688 -3.789062 1.878906 -4.054688 1.515625 -4.421875 C 1.148438 -4.796875 0.96875 -5.269531 0.96875 -5.84375 C 0.96875 -6.3125 1.097656 -6.722656 1.359375 -7.078125 C 1.617188 -7.429688 1.972656 -7.707031 2.421875 -7.90625 C 2.867188 -8.101562 3.378906 -8.203125 3.953125 -8.203125 C 4.515625 -8.203125 4.992188 -8.113281 5.390625 -7.9375 C 5.785156 -7.757812 6.109375 -7.515625 6.359375 -7.203125 C 6.609375 -6.890625 6.78125 -6.53125 6.875 -6.125 L 5.6875 -5.875 C 5.59375 -6.195312 5.410156 -6.476562 5.140625 -6.71875 C 4.867188 -6.96875 4.476562 -7.09375 3.96875 -7.09375 C 3.476562 -7.09375 3.070312 -6.976562 2.75 -6.75 C 2.4375 -6.53125 2.28125 -6.25 2.28125 -5.90625 C 2.28125 -5.601562 2.390625 -5.363281 2.609375 -5.1875 C 2.828125 -5.007812 3.164062 -4.863281 3.625 -4.75 L 4.859375 -4.453125 C 5.609375 -4.285156 6.15625 -4.019531 6.5 -3.65625 C 6.851562 -3.289062 7.03125 -2.828125 7.03125 -2.265625 C 7.03125 -1.785156 6.894531 -1.363281 6.625 -1 C 6.363281 -0.632812 5.992188 -0.347656 5.515625 -0.140625 C 5.046875 0.0664062 4.5 0.171875 3.875 0.171875 Z M 3.875 0.171875 "/></g></g></g><g fill="#5a5a56" fill-opacity="1"><g transform="translate(1209.386026, 724.949984)"><g><path d="M 4.359375 -8.09375 L 4.359375 -6.96875 L 0.140625 -6.96875 L 0.140625 -8.09375 Z M 1.40625 -10.078125 L 2.703125 -10.078125 L 2.703125 -2.0625 C 2.703125 -1.71875 2.773438 -1.460938 2.921875 -1.296875 C 3.066406 -1.140625 3.304688 -1.0625 3.640625 -1.0625 C 3.734375 -1.0625 3.84375 -1.066406 3.96875 -1.078125 C 4.101562 -1.097656 4.222656 -1.117188 4.328125 -1.140625 L 4.546875 -0.03125 C 4.410156 0 4.253906 0.0234375 4.078125 0.046875 C 3.910156 0.0664062 3.75 0.078125 3.59375 0.078125 C 2.894531 0.078125 2.351562 -0.0976562 1.96875 -0.453125 C 1.59375 -0.804688 1.40625 -1.3125 1.40625 -1.96875 Z M 1.40625 -10.078125 "/></g></g><g transform="translate(1214.241983, 724.949984)"><g/></g><g transform="translate(1218.358193, 724.949984)"><g><path d="M 5.796875 -5.21875 L 5.796875 -4 L 1 -4 L 1 -5.21875 Z M 5.796875 -5.21875 "/></g></g><g transform="translate(1225.155068, 724.949984)"><g/></g><g transform="translate(1229.271279, 724.949984)"><g><path d="M 1.265625 0 L 1.265625 -10.90625 L 7.921875 -10.90625 L 7.921875 -9.703125 L 2.640625 -9.703125 L 2.640625 -6 L 7.4375 -6 L 7.4375 -4.78125 L 2.640625 -4.78125 L 2.640625 0 Z M 1.265625 0 "/></g></g></g><g fill="#5a5a56" fill-opacity="1"><g transform="translate(1237.518349, 724.949984)"><g><path d="M 4.484375 0.171875 C 3.703125 0.171875 3.03125 0 2.46875 -0.34375 C 1.90625 -0.695312 1.46875 -1.1875 1.15625 -1.8125 C 0.851562 -2.4375 0.703125 -3.160156 0.703125 -3.984375 C 0.703125 -4.816406 0.851562 -5.550781 1.15625 -6.1875 C 1.457031 -6.820312 1.882812 -7.316406 2.4375 -7.671875 C 2.988281 -8.023438 3.625 -8.203125 4.34375 -8.203125 C 4.8125 -8.203125 5.253906 -8.125 5.671875 -7.96875 C 6.097656 -7.8125 6.476562 -7.566406 6.8125 -7.234375 C 7.15625 -6.910156 7.421875 -6.488281 7.609375 -5.96875 C 7.804688 -5.457031 7.90625 -4.84375 7.90625 -4.125 L 7.90625 -3.625 L 1.546875 -3.625 L 1.546875 -4.71875 L 7.203125 -4.71875 L 6.609375 -4.328125 C 6.609375 -4.859375 6.519531 -5.328125 6.34375 -5.734375 C 6.175781 -6.140625 5.921875 -6.457031 5.578125 -6.6875 C 5.242188 -6.925781 4.832031 -7.046875 4.34375 -7.046875 C 3.863281 -7.046875 3.445312 -6.925781 3.09375 -6.6875 C 2.75 -6.457031 2.484375 -6.144531 2.296875 -5.75 C 2.109375 -5.363281 2.015625 -4.941406 2.015625 -4.484375 L 2.015625 -3.796875 C 2.015625 -3.203125 2.113281 -2.691406 2.3125 -2.265625 C 2.519531 -1.847656 2.8125 -1.53125 3.1875 -1.3125 C 3.5625 -1.09375 4 -0.984375 4.5 -0.984375 C 4.832031 -0.984375 5.128906 -1.03125 5.390625 -1.125 C 5.660156 -1.226562 5.890625 -1.375 6.078125 -1.5625 C 6.265625 -1.757812 6.410156 -1.992188 6.515625 -2.265625 L 7.78125 -2 C 7.65625 -1.570312 7.441406 -1.191406 7.140625 -0.859375 C 6.835938 -0.535156 6.457031 -0.28125 6 -0.09375 C 5.550781 0.0820312 5.046875 0.171875 4.484375 0.171875 Z M 4.484375 0.171875 "/></g></g><g transform="translate(1246.109657, 724.949984)"><g><path d="M 4.875 0.171875 C 4.40625 0.171875 4.007812 0.09375 3.6875 -0.0625 C 3.375 -0.226562 3.125 -0.421875 2.9375 -0.640625 C 2.75 -0.859375 2.597656 -1.0625 2.484375 -1.25 L 2.359375 -1.25 L 2.359375 0 L 1.109375 0 L 1.109375 -10.90625 L 2.40625 -10.90625 L 2.40625 -6.8125 L 2.484375 -6.8125 C 2.597656 -6.988281 2.742188 -7.1875 2.921875 -7.40625 C 3.109375 -7.625 3.359375 -7.8125 3.671875 -7.96875 C 3.984375 -8.125 4.382812 -8.203125 4.875 -8.203125 C 5.550781 -8.203125 6.144531 -8.03125 6.65625 -7.6875 C 7.175781 -7.34375 7.582031 -6.859375 7.875 -6.234375 C 8.175781 -5.609375 8.328125 -4.875 8.328125 -4.03125 C 8.328125 -3.175781 8.179688 -2.429688 7.890625 -1.796875 C 7.597656 -1.171875 7.191406 -0.6875 6.671875 -0.34375 C 6.160156 0 5.5625 0.171875 4.875 0.171875 Z M 4.6875 -1 C 5.175781 -1 5.59375 -1.128906 5.9375 -1.390625 C 6.28125 -1.648438 6.539062 -2.007812 6.71875 -2.46875 C 6.90625 -2.9375 7 -3.457031 7 -4.03125 C 7 -4.613281 6.910156 -5.128906 6.734375 -5.578125 C 6.554688 -6.035156 6.296875 -6.390625 5.953125 -6.640625 C 5.609375 -6.898438 5.1875 -7.03125 4.6875 -7.03125 C 4.1875 -7.03125 3.765625 -6.90625 3.421875 -6.65625 C 3.078125 -6.40625 2.816406 -6.054688 2.640625 -5.609375 C 2.460938 -5.160156 2.375 -4.632812 2.375 -4.03125 C 2.375 -3.4375 2.460938 -2.910156 2.640625 -2.453125 C 2.816406 -1.992188 3.078125 -1.632812 3.421875 -1.375 C 3.773438 -1.125 4.195312 -1 4.6875 -1 Z M 4.6875 -1 "/></g></g><g transform="translate(1255.140418, 724.949984)"><g><path d="M 1.109375 0 L 1.109375 -8.09375 L 2.359375 -8.09375 L 2.359375 -6.84375 L 2.4375 -6.84375 C 2.582031 -7.25 2.835938 -7.578125 3.203125 -7.828125 C 3.578125 -8.078125 4.007812 -8.203125 4.5 -8.203125 C 4.601562 -8.203125 4.71875 -8.195312 4.84375 -8.1875 C 4.96875 -8.1875 5.066406 -8.1875 5.140625 -8.1875 L 5.140625 -6.875 C 5.097656 -6.882812 5 -6.894531 4.84375 -6.90625 C 4.6875 -6.925781 4.519531 -6.9375 4.34375 -6.9375 C 3.976562 -6.9375 3.648438 -6.859375 3.359375 -6.703125 C 3.066406 -6.546875 2.832031 -6.328125 2.65625 -6.046875 C 2.488281 -5.765625 2.40625 -5.429688 2.40625 -5.046875 L 2.40625 0 Z M 1.109375 0 "/></g></g><g transform="translate(1260.604285, 724.949984)"><g><path d="M 3.890625 0.109375 C 3.347656 0.109375 2.863281 -0.00390625 2.4375 -0.234375 C 2.019531 -0.460938 1.691406 -0.800781 1.453125 -1.25 C 1.222656 -1.707031 1.109375 -2.28125 1.109375 -2.96875 L 1.109375 -8.09375 L 2.40625 -8.09375 L 2.40625 -3.078125 C 2.40625 -2.441406 2.570312 -1.945312 2.90625 -1.59375 C 3.238281 -1.238281 3.6875 -1.0625 4.25 -1.0625 C 4.632812 -1.0625 4.984375 -1.144531 5.296875 -1.3125 C 5.609375 -1.476562 5.851562 -1.722656 6.03125 -2.046875 C 6.21875 -2.378906 6.3125 -2.785156 6.3125 -3.265625 L 6.3125 -8.09375 L 7.625 -8.09375 L 7.625 0 L 6.359375 0 L 6.359375 -1.96875 L 6.5625 -1.96875 C 6.3125 -1.207031 5.953125 -0.671875 5.484375 -0.359375 C 5.023438 -0.046875 4.492188 0.109375 3.890625 0.109375 Z M 3.890625 0.109375 "/></g></g><g transform="translate(1269.327429, 724.949984)"><g><path d="M 3.40625 0.171875 C 2.894531 0.171875 2.429688 0.078125 2.015625 -0.109375 C 1.597656 -0.296875 1.265625 -0.578125 1.015625 -0.953125 C 0.765625 -1.328125 0.640625 -1.78125 0.640625 -2.3125 C 0.640625 -2.769531 0.726562 -3.144531 0.90625 -3.4375 C 1.09375 -3.726562 1.335938 -3.957031 1.640625 -4.125 C 1.953125 -4.289062 2.296875 -4.414062 2.671875 -4.5 C 3.046875 -4.582031 3.421875 -4.644531 3.796875 -4.6875 C 4.296875 -4.757812 4.691406 -4.8125 4.984375 -4.84375 C 5.285156 -4.875 5.507812 -4.929688 5.65625 -5.015625 C 5.800781 -5.097656 5.875 -5.238281 5.875 -5.4375 L 5.875 -5.484375 C 5.875 -5.816406 5.804688 -6.097656 5.671875 -6.328125 C 5.546875 -6.566406 5.351562 -6.742188 5.09375 -6.859375 C 4.84375 -6.984375 4.53125 -7.046875 4.15625 -7.046875 C 3.769531 -7.046875 3.4375 -6.984375 3.15625 -6.859375 C 2.882812 -6.742188 2.660156 -6.59375 2.484375 -6.40625 C 2.316406 -6.21875 2.195312 -6.019531 2.125 -5.8125 L 0.859375 -6.140625 C 1.023438 -6.640625 1.273438 -7.035156 1.609375 -7.328125 C 1.953125 -7.628906 2.34375 -7.847656 2.78125 -7.984375 C 3.21875 -8.128906 3.664062 -8.203125 4.125 -8.203125 C 4.4375 -8.203125 4.769531 -8.160156 5.125 -8.078125 C 5.476562 -8.003906 5.804688 -7.863281 6.109375 -7.65625 C 6.421875 -7.457031 6.675781 -7.171875 6.875 -6.796875 C 7.070312 -6.429688 7.171875 -5.960938 7.171875 -5.390625 L 7.171875 0 L 5.890625 0 L 5.890625 -1.109375 L 5.8125 -1.109375 C 5.71875 -0.921875 5.570312 -0.726562 5.375 -0.53125 C 5.175781 -0.332031 4.914062 -0.164062 4.59375 -0.03125 C 4.269531 0.101562 3.875 0.171875 3.40625 0.171875 Z M 3.625 -0.984375 C 4.113281 -0.984375 4.523438 -1.078125 4.859375 -1.265625 C 5.191406 -1.453125 5.441406 -1.695312 5.609375 -2 C 5.785156 -2.300781 5.875 -2.617188 5.875 -2.953125 L 5.875 -4.046875 C 5.820312 -3.992188 5.707031 -3.941406 5.53125 -3.890625 C 5.363281 -3.835938 5.171875 -3.789062 4.953125 -3.75 C 4.734375 -3.71875 4.515625 -3.6875 4.296875 -3.65625 C 4.078125 -3.632812 3.894531 -3.613281 3.75 -3.59375 C 3.4375 -3.550781 3.140625 -3.484375 2.859375 -3.390625 C 2.585938 -3.296875 2.367188 -3.15625 2.203125 -2.96875 C 2.035156 -2.789062 1.953125 -2.546875 1.953125 -2.234375 C 1.953125 -1.960938 2.023438 -1.734375 2.171875 -1.546875 C 2.316406 -1.359375 2.515625 -1.21875 2.765625 -1.125 C 3.015625 -1.03125 3.300781 -0.984375 3.625 -0.984375 Z M 3.625 -0.984375 "/></g></g><g transform="translate(1277.603796, 724.949984)"><g><path d="M 1.109375 0 L 1.109375 -8.09375 L 2.359375 -8.09375 L 2.359375 -6.84375 L 2.4375 -6.84375 C 2.582031 -7.25 2.835938 -7.578125 3.203125 -7.828125 C 3.578125 -8.078125 4.007812 -8.203125 4.5 -8.203125 C 4.601562 -8.203125 4.71875 -8.195312 4.84375 -8.1875 C 4.96875 -8.1875 5.066406 -8.1875 5.140625 -8.1875 L 5.140625 -6.875 C 5.097656 -6.882812 5 -6.894531 4.84375 -6.90625 C 4.6875 -6.925781 4.519531 -6.9375 4.34375 -6.9375 C 3.976562 -6.9375 3.648438 -6.859375 3.359375 -6.703125 C 3.066406 -6.546875 2.832031 -6.328125 2.65625 -6.046875 C 2.488281 -5.765625 2.40625 -5.429688 2.40625 -5.046875 L 2.40625 0 Z M 1.109375 0 "/></g></g></g><g fill="#5a5a56" fill-opacity="1"><g transform="translate(1283.280065, 724.949984)"><g><path d="M 1.015625 2.984375 L 1.28125 1.859375 L 1.546875 1.875 C 1.796875 1.9375 2.019531 1.945312 2.21875 1.90625 C 2.414062 1.863281 2.59375 1.753906 2.75 1.578125 C 2.914062 1.398438 3.054688 1.140625 3.171875 0.796875 L 3.453125 0.015625 L 0.359375 -8.09375 L 1.78125 -8.09375 L 3.515625 -3.3125 C 3.679688 -2.84375 3.828125 -2.367188 3.953125 -1.890625 C 4.085938 -1.421875 4.222656 -0.96875 4.359375 -0.53125 L 3.90625 -0.53125 C 4.039062 -0.96875 4.171875 -1.421875 4.296875 -1.890625 C 4.429688 -2.367188 4.585938 -2.84375 4.765625 -3.3125 L 6.5 -8.09375 L 7.90625 -8.09375 L 4.3125 1.265625 C 4.15625 1.679688 3.960938 2.023438 3.734375 2.296875 C 3.515625 2.566406 3.253906 2.769531 2.953125 2.90625 C 2.648438 3.039062 2.3125 3.109375 1.9375 3.109375 C 1.726562 3.109375 1.539062 3.09375 1.375 3.0625 C 1.21875 3.039062 1.097656 3.015625 1.015625 2.984375 Z M 1.015625 2.984375 "/></g></g><g transform="translate(1291.541784, 724.949984)"><g/></g><g transform="translate(1295.657994, 724.949984)"><g><path d="M 4.6875 -10.90625 L 4.6875 0 L 3.34375 0 L 3.34375 -9.609375 L 3.28125 -9.609375 L 0.625 -7.6875 L 0.625 -9.140625 L 3.078125 -10.90625 Z M 4.6875 -10.90625 "/></g></g><g transform="translate(1301.612584, 724.949984)"><g><path d="M 1.015625 0 L 1.015625 -1.03125 L 4.6875 -4.875 C 5.113281 -5.3125 5.460938 -5.691406 5.734375 -6.015625 C 6.003906 -6.347656 6.207031 -6.664062 6.34375 -6.96875 C 6.488281 -7.269531 6.5625 -7.59375 6.5625 -7.9375 C 6.5625 -8.332031 6.46875 -8.675781 6.28125 -8.96875 C 6.101562 -9.257812 5.859375 -9.476562 5.546875 -9.625 C 5.234375 -9.78125 4.875 -9.859375 4.46875 -9.859375 C 4.03125 -9.859375 3.65625 -9.769531 3.34375 -9.59375 C 3.03125 -9.414062 2.785156 -9.164062 2.609375 -8.84375 C 2.441406 -8.53125 2.359375 -8.15625 2.359375 -7.71875 L 1.046875 -7.71875 C 1.046875 -8.382812 1.191406 -8.96875 1.484375 -9.46875 C 1.785156 -9.96875 2.195312 -10.359375 2.71875 -10.640625 C 3.238281 -10.921875 3.828125 -11.0625 4.484375 -11.0625 C 5.148438 -11.0625 5.734375 -10.925781 6.234375 -10.65625 C 6.742188 -10.382812 7.140625 -10.015625 7.421875 -9.546875 C 7.710938 -9.078125 7.859375 -8.550781 7.859375 -7.96875 C 7.859375 -7.550781 7.78125 -7.148438 7.625 -6.765625 C 7.476562 -6.390625 7.226562 -5.96875 6.875 -5.5 C 6.519531 -5.039062 6.035156 -4.492188 5.421875 -3.859375 L 2.90625 -1.28125 L 2.90625 -1.203125 L 8.015625 -1.203125 L 8.015625 0 Z M 1.015625 0 "/></g></g><g transform="translate(1310.5994, 724.949984)"><g><path d="M 0.828125 2.5 L 1.46875 -1.515625 L 2.9375 -1.515625 L 1.8125 2.5 Z M 0.828125 2.5 "/></g></g><g transform="translate(1314.693638, 724.949984)"><g/></g><g transform="translate(1318.809849, 724.949984)"><g><path d="M 1.015625 0 L 1.015625 -1.03125 L 4.6875 -4.875 C 5.113281 -5.3125 5.460938 -5.691406 5.734375 -6.015625 C 6.003906 -6.347656 6.207031 -6.664062 6.34375 -6.96875 C 6.488281 -7.269531 6.5625 -7.59375 6.5625 -7.9375 C 6.5625 -8.332031 6.46875 -8.675781 6.28125 -8.96875 C 6.101562 -9.257812 5.859375 -9.476562 5.546875 -9.625 C 5.234375 -9.78125 4.875 -9.859375 4.46875 -9.859375 C 4.03125 -9.859375 3.65625 -9.769531 3.34375 -9.59375 C 3.03125 -9.414062 2.785156 -9.164062 2.609375 -8.84375 C 2.441406 -8.53125 2.359375 -8.15625 2.359375 -7.71875 L 1.046875 -7.71875 C 1.046875 -8.382812 1.191406 -8.96875 1.484375 -9.46875 C 1.785156 -9.96875 2.195312 -10.359375 2.71875 -10.640625 C 3.238281 -10.921875 3.828125 -11.0625 4.484375 -11.0625 C 5.148438 -11.0625 5.734375 -10.925781 6.234375 -10.65625 C 6.742188 -10.382812 7.140625 -10.015625 7.421875 -9.546875 C 7.710938 -9.078125 7.859375 -8.550781 7.859375 -7.96875 C 7.859375 -7.550781 7.78125 -7.148438 7.625 -6.765625 C 7.476562 -6.390625 7.226562 -5.96875 6.875 -5.5 C 6.519531 -5.039062 6.035156 -4.492188 5.421875 -3.859375 L 2.90625 -1.28125 L 2.90625 -1.203125 L 8.015625 -1.203125 L 8.015625 0 Z M 1.015625 0 "/></g></g><g transform="translate(1327.796665, 724.949984)"><g><path d="M 4.703125 0.15625 C 3.890625 0.15625 3.195312 -0.0625 2.625 -0.5 C 2.050781 -0.945312 1.609375 -1.585938 1.296875 -2.421875 C 0.992188 -3.265625 0.84375 -4.273438 0.84375 -5.453125 C 0.84375 -6.628906 0.992188 -7.632812 1.296875 -8.46875 C 1.609375 -9.300781 2.050781 -9.941406 2.625 -10.390625 C 3.207031 -10.835938 3.898438 -11.0625 4.703125 -11.0625 C 5.503906 -11.0625 6.191406 -10.835938 6.765625 -10.390625 C 7.347656 -9.941406 7.789062 -9.300781 8.09375 -8.46875 C 8.40625 -7.632812 8.5625 -6.628906 8.5625 -5.453125 C 8.5625 -4.273438 8.40625 -3.265625 8.09375 -2.421875 C 7.789062 -1.585938 7.351562 -0.945312 6.78125 -0.5 C 6.207031 -0.0625 5.515625 0.15625 4.703125 0.15625 Z M 4.703125 -1.0625 C 5.242188 -1.0625 5.703125 -1.234375 6.078125 -1.578125 C 6.453125 -1.929688 6.738281 -2.429688 6.9375 -3.078125 C 7.144531 -3.734375 7.25 -4.523438 7.25 -5.453125 C 7.25 -6.378906 7.144531 -7.171875 6.9375 -7.828125 C 6.738281 -8.484375 6.453125 -8.984375 6.078125 -9.328125 C 5.703125 -9.679688 5.242188 -9.859375 4.703125 -9.859375 C 4.160156 -9.859375 3.703125 -9.679688 3.328125 -9.328125 C 2.953125 -8.984375 2.660156 -8.484375 2.453125 -7.828125 C 2.253906 -7.171875 2.15625 -6.378906 2.15625 -5.453125 C 2.15625 -4.523438 2.253906 -3.734375 2.453125 -3.078125 C 2.660156 -2.429688 2.953125 -1.929688 3.328125 -1.578125 C 3.703125 -1.234375 4.160156 -1.0625 4.703125 -1.0625 Z M 4.703125 -1.0625 "/></g></g><g transform="translate(1337.200961, 724.949984)"><g><path d="M 1.015625 0 L 1.015625 -1.03125 L 4.6875 -4.875 C 5.113281 -5.3125 5.460938 -5.691406 5.734375 -6.015625 C 6.003906 -6.347656 6.207031 -6.664062 6.34375 -6.96875 C 6.488281 -7.269531 6.5625 -7.59375 6.5625 -7.9375 C 6.5625 -8.332031 6.46875 -8.675781 6.28125 -8.96875 C 6.101562 -9.257812 5.859375 -9.476562 5.546875 -9.625 C 5.234375 -9.78125 4.875 -9.859375 4.46875 -9.859375 C 4.03125 -9.859375 3.65625 -9.769531 3.34375 -9.59375 C 3.03125 -9.414062 2.785156 -9.164062 2.609375 -8.84375 C 2.441406 -8.53125 2.359375 -8.15625 2.359375 -7.71875 L 1.046875 -7.71875 C 1.046875 -8.382812 1.191406 -8.96875 1.484375 -9.46875 C 1.785156 -9.96875 2.195312 -10.359375 2.71875 -10.640625 C 3.238281 -10.921875 3.828125 -11.0625 4.484375 -11.0625 C 5.148438 -11.0625 5.734375 -10.925781 6.234375 -10.65625 C 6.742188 -10.382812 7.140625 -10.015625 7.421875 -9.546875 C 7.710938 -9.078125 7.859375 -8.550781 7.859375 -7.96875 C 7.859375 -7.550781 7.78125 -7.148438 7.625 -6.765625 C 7.476562 -6.390625 7.226562 -5.96875 6.875 -5.5 C 6.519531 -5.039062 6.035156 -4.492188 5.421875 -3.859375 L 2.90625 -1.28125 L 2.90625 -1.203125 L 8.015625 -1.203125 L 8.015625 0 Z M 1.015625 0 "/></g></g><g transform="translate(1346.187777, 724.949984)"><g><path d="M 4.671875 0.15625 C 4.179688 0.15625 3.707031 0.0664062 3.25 -0.109375 C 2.789062 -0.296875 2.378906 -0.585938 2.015625 -0.984375 C 1.660156 -1.390625 1.375 -1.921875 1.15625 -2.578125 C 0.945312 -3.242188 0.84375 -4.0625 0.84375 -5.03125 C 0.84375 -5.976562 0.929688 -6.820312 1.109375 -7.5625 C 1.285156 -8.3125 1.546875 -8.945312 1.890625 -9.46875 C 2.234375 -9.988281 2.648438 -10.382812 3.140625 -10.65625 C 3.640625 -10.925781 4.207031 -11.0625 4.84375 -11.0625 C 5.457031 -11.0625 6.003906 -10.9375 6.484375 -10.6875 C 6.972656 -10.445312 7.367188 -10.109375 7.671875 -9.671875 C 7.972656 -9.242188 8.164062 -8.742188 8.25 -8.171875 L 6.90625 -8.171875 C 6.789062 -8.660156 6.5625 -9.0625 6.21875 -9.375 C 5.875 -9.6875 5.421875 -9.84375 4.859375 -9.84375 C 4.285156 -9.84375 3.796875 -9.675781 3.390625 -9.34375 C 2.984375 -9.007812 2.671875 -8.53125 2.453125 -7.90625 C 2.242188 -7.289062 2.140625 -6.550781 2.140625 -5.6875 L 2.21875 -5.6875 C 2.40625 -5.988281 2.632812 -6.242188 2.90625 -6.453125 C 3.1875 -6.671875 3.492188 -6.835938 3.828125 -6.953125 C 4.171875 -7.066406 4.535156 -7.125 4.921875 -7.125 C 5.546875 -7.125 6.117188 -6.96875 6.640625 -6.65625 C 7.160156 -6.351562 7.570312 -5.925781 7.875 -5.375 C 8.1875 -4.832031 8.34375 -4.210938 8.34375 -3.515625 C 8.34375 -2.828125 8.1875 -2.207031 7.875 -1.65625 C 7.570312 -1.101562 7.144531 -0.660156 6.59375 -0.328125 C 6.039062 -0.00390625 5.398438 0.15625 4.671875 0.15625 Z M 4.671875 -1.0625 C 5.109375 -1.0625 5.503906 -1.171875 5.859375 -1.390625 C 6.210938 -1.609375 6.492188 -1.898438 6.703125 -2.265625 C 6.910156 -2.640625 7.015625 -3.054688 7.015625 -3.515625 C 7.015625 -3.960938 6.910156 -4.367188 6.703125 -4.734375 C 6.503906 -5.097656 6.234375 -5.382812 5.890625 -5.59375 C 5.546875 -5.8125 5.148438 -5.921875 4.703125 -5.921875 C 4.378906 -5.921875 4.070312 -5.851562 3.78125 -5.71875 C 3.488281 -5.59375 3.234375 -5.414062 3.015625 -5.1875 C 2.804688 -4.96875 2.640625 -4.710938 2.515625 -4.421875 C 2.398438 -4.128906 2.34375 -3.820312 2.34375 -3.5 C 2.34375 -3.0625 2.441406 -2.65625 2.640625 -2.28125 C 2.847656 -1.914062 3.125 -1.617188 3.46875 -1.390625 C 3.820312 -1.171875 4.222656 -1.0625 4.671875 -1.0625 Z M 4.671875 -1.0625 "/></g></g></g><g fill="#5a5a56" fill-opacity="1"><g transform="translate(1354.896273, 724.949984)"><g><path d="M 2.046875 0.109375 C 1.773438 0.109375 1.546875 0.015625 1.359375 -0.171875 C 1.171875 -0.367188 1.078125 -0.601562 1.078125 -0.875 C 1.078125 -1.144531 1.171875 -1.375 1.359375 -1.5625 C 1.546875 -1.75 1.773438 -1.84375 2.046875 -1.84375 C 2.316406 -1.84375 2.546875 -1.75 2.734375 -1.5625 C 2.921875 -1.375 3.015625 -1.144531 3.015625 -0.875 C 3.015625 -0.601562 2.921875 -0.367188 2.734375 -0.171875 C 2.546875 0.015625 2.316406 0.109375 2.046875 0.109375 Z M 2.046875 0.109375 "/></g></g></g></svg>