<svg width="817" height="214" viewBox="0 0 817 214" fill="none" xmlns="http://www.w3.org/2000/svg">
<path fill-rule="evenodd" clip-rule="evenodd" d="M96.1672 0C99.5713 0 102.975 0 106.38 0C124.54 12.469 134.894 29.7736 137.443 51.9136C142.717 40.9593 149.951 31.456 159.144 23.4037C165.689 19.2306 169.376 20.9327 170.208 28.5099C169.37 36.9816 166.675 44.7829 162.123 51.9136C160.399 54.9145 157.988 57.184 154.889 58.7219C153.847 62.8906 152.286 66.8622 150.208 70.6365C143.877 76.7743 139.197 75.6396 136.166 67.2323C136.293 66.337 136.152 65.486 135.741 64.6792C134.573 65.8793 133.864 67.2976 133.613 68.9344C133.045 68.9344 132.762 69.2181 132.762 69.7855C129.436 74.383 125.181 77.929 119.996 80.4235C109.729 81.7923 104.339 77.2534 103.827 66.8068C103.866 61.6255 105.568 57.0865 108.933 53.1901C97.4565 45.4273 91.3571 34.5056 90.6354 20.425C89.4992 12.7351 91.3435 5.92671 96.1672 0ZM105.529 17.0208C112.373 19.3872 118.188 23.3586 122.975 28.9354C129.636 37.1348 133.749 46.4963 135.315 57.0198C132.518 63.935 127.979 69.4667 121.698 73.6151C116.755 74.7598 113.492 72.9159 111.911 68.0834C111.135 62.04 112.696 56.65 116.592 51.9136C104.29 44.8976 99.3262 34.4014 101.699 20.425C102.888 19.0886 104.164 17.9539 105.529 17.0208ZM159.144 31.4886C160.563 31.4886 161.981 31.4886 163.399 31.4886C163.514 42.3245 158.976 50.5511 149.783 56.1688C149.192 59.3092 148.482 62.4297 147.655 65.5302C146.827 67.3515 145.551 68.7699 143.826 69.7855C139.649 66.5383 137.804 62.2831 138.294 57.0198C143.274 46.8021 150.224 38.2917 159.144 31.4886Z" fill="#F9F9F9"/>
<path fill-rule="evenodd" clip-rule="evenodd" d="M187.229 17.8719C205.387 17.7301 223.542 17.8719 241.696 18.2974C244.91 20.812 245.903 24.0743 244.675 28.0844C243.641 29.4025 242.365 30.3954 240.845 31.063C226.096 31.4885 211.345 31.6303 196.591 31.4886C196.591 39.1479 196.591 46.8073 196.591 54.4667C210.21 54.3249 223.827 54.4668 237.441 54.8922C241.461 56.9648 242.738 60.2271 241.27 64.6792C240.277 65.6721 239.285 66.6649 238.292 67.6579C224.394 68.0833 210.494 68.2252 196.591 68.0834C196.591 76.8774 196.591 85.6719 196.591 94.4657C211.912 94.3236 227.231 94.4657 242.547 94.8912C245.951 98.863 245.951 102.834 242.547 106.806C223.824 107.373 205.101 107.373 186.378 106.806C185.599 106.487 184.889 106.062 184.251 105.529C182.845 77.5174 182.561 49.433 183.4 21.2761C184.588 19.9397 185.865 18.805 187.229 17.8719Z" fill="#F9F9F9"/>
<path fill-rule="evenodd" clip-rule="evenodd" d="M255.315 17.8719C259.013 17.7309 262.701 17.8727 266.378 18.2974C267.371 19.2903 268.364 20.2832 269.357 21.2761C277.184 42.2032 284.843 63.1956 292.335 84.2532C300.437 63.0714 308.38 41.7954 316.164 20.425C318.57 18.3306 321.406 17.4796 324.674 17.8719C326.519 18.0138 328.362 18.1556 330.206 18.2974C330.632 18.7229 331.057 19.1485 331.483 19.574C332.889 47.5858 333.172 75.6702 332.334 103.827C329.72 107.911 326.174 108.904 321.696 106.806C320.51 105.809 319.801 104.533 319.568 102.976C319.285 85.6719 319.001 68.367 318.717 51.0625C312.644 68.432 306.403 85.7366 299.994 102.976C295.592 109.39 290.769 109.673 285.527 103.827C279.002 85.9553 272.478 68.0834 265.953 50.2115C265.669 68.367 265.385 86.5229 265.102 104.678C260.034 109.505 255.779 108.938 252.336 102.976C251.768 76.3102 251.768 49.6441 252.336 22.9782C252.816 20.947 253.808 19.2449 255.315 17.8719Z" fill="#F9F9F9"/>
<path fill-rule="evenodd" clip-rule="evenodd" d="M341.268 17.8719C355.172 17.7301 369.072 17.872 382.969 18.2974C397.714 20.6968 404.664 29.3491 403.82 44.2542C403.123 50.4739 400.428 55.5801 395.735 59.5729C406.2 67.6424 409.463 78.1386 405.522 91.0615C399.691 102.568 390.189 108.1 377.012 107.657C365.665 108.224 354.317 108.224 342.97 107.657C341.45 106.989 340.174 105.996 339.141 104.678C338.573 76.5938 338.573 48.5094 339.141 20.425C340.03 19.6817 340.739 18.8307 341.268 17.8719ZM352.332 30.6375C362.297 30.3551 372.226 30.7807 382.118 31.9141C387.597 33.4951 390.15 37.183 389.778 42.9776C390.152 48.5623 387.599 51.9665 382.118 53.1901C372.243 54.392 362.314 54.8175 352.332 54.4667C352.332 46.5237 352.332 38.5805 352.332 30.6375ZM352.332 67.2323C362.575 66.997 372.787 67.4225 382.969 68.5089C392.796 72.1576 395.491 78.824 391.054 88.5084C388.287 91.7985 384.74 93.6427 380.416 94.0401C371.059 94.4657 361.697 94.6078 352.332 94.4657C352.332 85.3879 352.332 76.3101 352.332 67.2323Z" fill="#F9F9F9"/>
<path fill-rule="evenodd" clip-rule="evenodd" d="M416.158 17.8719C434.316 17.7301 452.471 17.8719 470.625 18.2974C474.336 20.1917 475.613 23.1703 474.455 27.2334C473.746 29.0773 472.469 30.3539 470.625 31.063C455.877 31.4885 441.125 31.6303 426.371 31.4886C426.371 39.1479 426.371 46.8073 426.371 54.4667C439.99 54.3249 453.607 54.4668 467.221 54.8922C471.506 57.4567 472.499 61.0026 470.2 65.5303C469.431 66.5527 468.439 67.262 467.221 67.6579C453.607 68.0833 439.99 68.2252 426.371 68.0834C426.371 76.8774 426.371 85.6719 426.371 94.4657C441.692 94.3236 457.011 94.4657 472.327 94.8912C475.138 98.1209 475.564 101.667 473.604 105.529C472.965 106.062 472.256 106.487 471.476 106.806C452.753 107.373 434.03 107.373 415.307 106.806C414.598 106.097 413.889 105.387 413.18 104.678C411.781 77.7804 411.496 50.8307 412.329 23.8292C412.78 21.2037 414.056 19.218 416.158 17.8719Z" fill="#F9F9F9"/>
<path fill-rule="evenodd" clip-rule="evenodd" d="M484.244 17.8718C486.531 17.7321 488.801 17.874 491.053 18.2973C492.613 18.7228 493.606 19.7157 494.031 21.276C494.457 45.6708 494.599 70.0674 494.457 94.4656C508.36 94.3235 522.26 94.4656 536.158 94.8911C539.653 97.8408 540.362 101.387 538.285 105.529C537.289 106.715 536.012 107.424 534.456 107.657C518.286 108.224 502.116 108.224 485.946 107.657C483.948 107.362 482.388 106.369 481.266 104.678C480.698 76.8773 480.698 49.0767 481.266 21.276C481.853 19.7014 482.845 18.5666 484.244 17.8718Z" fill="#F9F9F9"/>
<path fill-rule="evenodd" clip-rule="evenodd" d="M548.921 17.8719C551.49 17.7318 554.043 17.8736 556.58 18.2974C557.603 19.0655 558.312 20.0584 558.708 21.2761C559.134 45.6709 559.276 70.0675 559.134 94.4657C573.037 94.3236 586.937 94.4657 600.835 94.8912C603.274 96.0767 604.408 98.0622 604.239 100.849C604.38 104.549 602.678 106.819 599.133 107.657C582.963 108.224 566.793 108.224 550.623 107.657C549.067 107.425 547.79 106.715 546.794 105.529C545.388 77.5175 545.104 49.4331 545.942 21.2761C546.53 19.7015 547.522 18.5667 548.921 17.8719Z" fill="#F9F9F9"/>
<path fill-rule="evenodd" clip-rule="evenodd" d="M613.601 17.8719C632.042 17.7301 650.482 17.8719 668.919 18.2974C673.457 22.5526 673.457 26.8078 668.919 31.063C653.886 31.4885 638.851 31.6303 623.813 31.4886C623.813 39.1479 623.813 46.8073 623.813 54.4667C637.433 54.3249 651.049 54.4668 664.663 54.8922C668.684 56.9648 669.96 60.2271 668.493 64.6792C667.5 65.6721 666.508 66.6649 665.514 67.6579C651.617 68.0833 637.717 68.2252 623.813 68.0834C623.813 76.8774 623.813 85.6719 623.813 94.4657C639.135 94.3236 654.453 94.4657 669.77 94.8912C674.308 98.863 674.308 102.834 669.77 106.806C651.047 107.373 632.324 107.373 613.601 106.806C612.821 106.487 612.111 106.062 611.473 105.529C610.067 77.5174 609.784 49.433 610.622 21.2761C611.793 20.2505 612.786 19.1158 613.601 17.8719Z" fill="#F9F9F9"/>
<path fill-rule="evenodd" clip-rule="evenodd" d="M681.686 17.8719C702.963 17.7301 724.239 17.8719 745.514 18.2974C748.081 19.5983 749.215 21.7259 748.918 24.6802C748.814 27.4018 748.105 29.9549 746.79 32.3396C730.581 52.9839 714.27 73.5508 697.855 94.0402C714.025 94.3236 730.195 94.6078 746.365 94.8912C751.278 99.9115 750.71 104.167 744.663 107.657C724.521 108.224 704.38 108.224 684.239 107.657C680.563 106.701 678.861 104.29 679.133 100.423C679.2 97.2418 680.193 94.4044 682.111 91.9126C698.463 71.8741 714.492 51.5909 730.195 31.063C713.742 30.7794 697.288 30.4957 680.835 30.212C677.327 25.8614 677.61 21.748 681.686 17.8719Z" fill="#F9F9F9"/>
<path fill-rule="evenodd" clip-rule="evenodd" d="M816.999 20.4249C816.999 23.2617 816.999 26.0986 816.999 28.9354C815.993 29.7902 814.858 30.4994 813.595 31.063C798.847 31.4884 784.095 31.6303 769.341 31.4885C769.341 39.1479 769.341 46.8072 769.341 54.4666C782.96 54.3248 796.577 54.4667 810.191 54.8921C814.275 57.5058 815.267 61.0518 813.17 65.5302C812.401 66.5526 811.409 67.2619 810.191 67.6578C796.577 68.0832 782.96 68.2251 769.341 68.0833C769.341 76.8774 769.341 85.6718 769.341 94.4656C784.662 94.3235 799.981 94.4656 815.297 94.8911C815.76 95.5013 816.328 95.9268 816.999 96.1677C816.999 99.0042 816.999 101.842 816.999 104.678C816.311 105.503 815.46 106.212 814.446 106.806C795.723 107.373 777 107.373 758.277 106.806C756.586 105.683 755.593 104.123 755.299 102.125C754.731 75.7427 754.731 49.3604 755.299 22.9781C755.531 21.4216 756.241 20.145 757.426 19.1484C776.074 17.7489 794.796 17.4652 813.595 18.2973C814.858 18.8609 815.993 19.5701 816.999 20.4249Z" fill="#F9F9F9"/>
<path fill-rule="evenodd" clip-rule="evenodd" d="M136.166 67.2323C133.854 83.4963 126.478 96.829 114.038 107.231C112.739 107.169 111.888 107.737 111.485 108.933C88.3378 120.479 64.5087 122.182 39.9978 114.04C39.7142 114.04 39.4304 114.04 39.1468 114.04C36.4637 112.767 33.7687 111.349 31.0619 109.784C29.3263 103.557 29.0426 97.3158 30.2108 91.0615C34.0458 87.0871 38.7265 84.8181 44.253 84.2532C43.1901 85.6455 41.7717 86.6386 39.9978 87.2318C35.5719 90.5611 35.5719 93.9653 39.9978 97.4443C42.3012 99.0681 44.8543 99.777 47.6572 99.5719C44.3149 98.9558 50.5558 100.941 47.6572 99.5719C63.6946 102.107 88.6587 103.809 103.826 98.7209C107.05 98.8834 109.603 97.749 111.485 95.3167C122.278 89.9117 129.37 81.4015 132.761 69.7855C133.329 69.7855 133.612 69.5018 133.612 68.9344C133.863 67.2976 134.572 65.8793 135.74 64.6792C136.151 65.486 136.292 66.337 136.166 67.2323ZM103.826 98.7209C88.6587 103.809 63.6946 102.107 47.6572 99.5719C44.3149 98.9558 50.5558 100.941 47.6572 99.5719C64.2523 102.195 88.0815 104.003 103.826 98.7209Z" fill="#F9F9F9"/>
<path fill-rule="evenodd" clip-rule="evenodd" d="M111.487 95.3167C109.604 97.749 107.051 98.8835 103.827 98.7209C85.0108 96.1712 66.2879 96.4554 47.6585 99.5719C44.8556 99.777 42.3025 99.0681 39.9991 97.4443C35.5732 93.9653 35.5732 90.5611 39.9991 87.2318C41.773 86.6387 43.1915 85.6455 44.2543 84.2532C63.2273 81.7451 81.9502 83.0216 100.423 88.0829C104.717 89.6565 108.405 92.0675 111.487 95.3167Z" fill="#F9F9F9"/>
<path fill-rule="evenodd" clip-rule="evenodd" d="M114.04 107.231C111.908 119.567 105.1 128.078 93.6153 132.763C92.286 132.961 91.1515 133.529 90.2111 134.465C72.2678 140.313 54.1122 141.022 35.7444 136.592C33.0216 135.739 30.894 134.178 29.3616 131.912C25.6947 122.02 28.957 116.063 39.1486 114.04C39.4323 114.04 39.716 114.04 39.9996 114.04C38.666 115.871 37.2475 117.715 35.7444 119.572C36.4013 120.611 37.2523 121.462 38.2976 122.125C58.8243 128.495 79.2493 128.21 99.5726 121.274C104.862 118.396 108.834 114.283 111.487 108.933C111.89 107.737 112.741 107.169 114.04 107.231Z" fill="#F9F9F9"/>
<path fill-rule="evenodd" clip-rule="evenodd" d="M817 123.401C817 124.252 817 125.103 817 125.954C799.058 129.758 780.903 132.169 762.533 133.188C703.283 136.246 643.994 136.529 584.666 134.039C517.14 130.54 449.623 126.852 382.118 122.976C323.327 119.552 264.605 120.403 205.952 125.529C198.72 126.136 191.629 127.412 184.676 129.358C183.621 128.076 183.906 127.083 185.527 126.38C202.281 122.158 219.302 119.605 236.589 118.72C295.305 115.964 354.027 115.964 412.755 118.72C482.791 123.074 552.86 126.762 622.962 129.784C660.976 130.352 698.989 130.352 737.002 129.784C763.822 129.281 790.488 127.153 817 123.401Z" fill="#F9F9F9"/>
<path fill-rule="evenodd" clip-rule="evenodd" d="M93.615 132.763C90.2032 144.685 82.5436 152.344 70.6369 155.741C69.6931 155.789 68.842 156.073 68.0837 156.592C55.3574 158.665 42.5917 158.806 29.7869 157.017C26.6725 156.47 24.403 154.91 22.9785 152.337C24.3105 149.297 26.0126 146.46 28.0848 143.826C31.0287 141.745 34.1492 140.894 37.4462 141.273C36.7965 142.311 35.9455 143.162 34.8931 143.826C36.4834 144.783 38.1854 145.492 39.9994 145.954C48.7552 147.235 57.5494 147.518 66.3817 146.805C75.5855 146.202 83.3868 142.655 89.7853 136.167C90.1802 135.661 90.3223 135.094 90.2108 134.465C91.1512 133.529 92.2857 132.961 93.615 132.763Z" fill="#F9F9F9"/>
<path fill-rule="evenodd" clip-rule="evenodd" d="M187.229 147.23C197.486 146.897 207.699 147.323 217.866 148.507C223.691 151.509 226.81 156.332 227.227 162.975C227.082 169.804 223.961 174.627 217.866 177.442C209.696 178.626 201.469 179.052 193.186 178.719C193.186 186.095 193.186 193.47 193.186 200.846C191.2 200.846 189.214 200.846 187.229 200.846C187.229 182.974 187.229 165.102 187.229 147.23ZM193.186 153.188C200.632 152.839 208.008 153.264 215.313 154.464C220.406 157.977 221.683 162.658 219.143 168.506C217.669 170.308 215.825 171.585 213.611 172.336C206.808 172.762 200 172.903 193.186 172.762C193.186 166.237 193.186 159.712 193.186 153.188Z" fill="#F9F9F9"/>
<path fill-rule="evenodd" clip-rule="evenodd" d="M283.396 147.23C285.666 147.23 287.935 147.23 290.205 147.23C290.205 150.351 290.205 153.471 290.205 156.592C287.935 156.592 285.666 156.592 283.396 156.592C283.396 153.471 283.396 150.351 283.396 147.23Z" fill="#F9F9F9"/>
<path fill-rule="evenodd" clip-rule="evenodd" d="M559.135 147.23C561.404 147.23 563.673 147.23 565.943 147.23C565.943 165.102 565.943 182.974 565.943 200.846C563.673 200.846 561.404 200.846 559.135 200.846C559.135 182.974 559.135 165.102 559.135 147.23Z" fill="#F9F9F9"/>
<path fill-rule="evenodd" clip-rule="evenodd" d="M647.643 147.23C651.935 146.952 656.19 147.235 660.408 148.081C664.039 159.114 667.584 170.178 671.046 181.272C675.061 170.362 678.749 159.299 682.11 148.081C686.426 147.255 690.823 146.971 695.301 147.23C690.148 164.96 684.474 182.548 678.28 199.995C673.49 200.842 668.668 201.126 663.812 200.846C658.248 183.02 652.859 165.148 647.643 147.23Z" fill="#F9F9F9"/>
<path fill-rule="evenodd" clip-rule="evenodd" d="M703.811 147.23C707.782 147.23 711.753 147.23 715.725 147.23C715.725 150.634 715.725 154.039 715.725 157.443C711.753 157.443 707.782 157.443 703.811 157.443C703.811 154.039 703.811 150.634 703.811 147.23Z" fill="#F9F9F9"/>
<path fill-rule="evenodd" clip-rule="evenodd" d="M754.875 147.23C758.847 147.23 762.818 147.23 766.789 147.23C766.789 165.102 766.789 182.974 766.789 200.846C763.102 200.846 759.413 200.846 755.726 200.846C755.859 199.677 755.717 198.542 755.3 197.442C751.402 201.29 746.721 202.567 741.258 201.271C731.875 197.852 727.335 191.044 727.641 180.846C728.302 165.208 736.246 158.967 751.471 162.123C752.689 162.519 753.681 163.229 754.449 164.251C754.875 158.585 755.016 152.911 754.875 147.23ZM744.662 170.208C750.402 169.172 753.948 171.442 755.3 177.017C755.893 180.766 755.609 184.454 754.449 188.08C751.585 192.428 747.755 193.421 742.96 191.059C741.649 189.715 740.656 188.154 739.982 186.378C739.279 182.047 739.563 177.792 740.833 173.613C742.022 172.276 743.298 171.141 744.662 170.208Z" fill="#F9F9F9"/>
<path fill-rule="evenodd" clip-rule="evenodd" d="M354.033 148.081C358.446 148.086 362.56 149.221 366.373 151.485C367.753 151.099 368.745 150.248 369.351 148.932C370.666 148.122 372.085 147.839 373.607 148.081C373.178 154.05 370.057 156.744 364.245 156.166C361.688 155.17 359.135 154.178 356.586 153.188C354.53 153.374 353.679 154.508 354.033 156.592C352.614 156.592 351.196 156.592 349.777 156.592C349.856 153.031 351.274 150.194 354.033 148.081Z" fill="#F9F9F9"/>
<path fill-rule="evenodd" clip-rule="evenodd" d="M70.6365 155.741C67.3289 163.442 61.6554 168.69 53.6157 171.485C45.3527 173.877 36.9842 174.303 28.5099 172.762C24.6081 172.703 20.7784 173.128 17.0208 174.038C15.9984 174.807 15.2891 175.799 14.8932 177.017C14.3738 184.823 11.5371 191.631 6.38282 197.442C4.59078 199.67 2.46317 201.372 0 202.548C0 201.697 0 200.846 0 199.995C2.73088 197.673 4.85849 194.837 6.38282 191.484C7.74533 185.498 9.16377 179.541 10.638 173.613C14.0963 168.827 18.7771 165.849 24.6802 164.677C31.6785 164.189 38.6287 164.615 45.5308 165.953C54.5509 166.188 62.0684 163.067 68.0834 156.592C68.8417 156.073 69.6927 155.789 70.6365 155.741Z" fill="#F9F9F9"/>
<path fill-rule="evenodd" clip-rule="evenodd" d="M248.503 160.847C252.485 160.706 256.456 160.848 260.418 161.273C263.555 162.199 265.966 164.043 267.652 166.804C268.87 176.1 269.295 185.461 268.928 194.889C270.347 194.889 271.765 194.889 273.184 194.889C274.101 200.476 271.831 202.32 266.375 200.421C264.949 199.419 263.814 198.142 262.971 196.591C256.584 202.139 249.492 203.132 241.695 199.57C236.698 195.046 235.705 189.798 238.716 183.825C240.366 181.607 242.493 180.048 245.099 179.145C250.477 178.224 255.867 177.373 261.269 176.591C264.271 169.932 262.002 166.387 254.461 165.953C248.874 166.018 245.469 168.713 244.248 174.038C242.282 174.461 240.297 174.603 238.291 174.464C238.835 167.691 242.239 163.152 248.503 160.847ZM261.269 181.272C264.02 190.097 260.473 195.204 250.631 196.591C243.015 195.107 241.454 191.277 245.95 185.102C251.087 183.544 256.193 182.268 261.269 181.272Z" fill="#F9F9F9"/>
<path fill-rule="evenodd" clip-rule="evenodd" d="M356.587 160.847C360.286 160.706 363.973 160.848 367.651 161.273C371.68 162.182 374.376 164.593 375.736 168.507C376.161 177.296 376.302 186.09 376.161 194.889C377.58 194.889 378.998 194.889 380.416 194.889C380.416 196.874 380.416 198.861 380.416 200.846C375.44 202.121 372.177 200.419 370.629 195.74C364.374 202.091 357.14 203.368 348.928 199.57C344.488 195.062 343.495 189.814 345.949 183.825C347.736 181.3 350.148 179.74 353.183 179.145C358.262 178.155 363.368 177.304 368.502 176.591C371.602 169.911 369.332 166.364 361.693 165.953C355.792 165.902 352.672 168.739 352.332 174.464C350.347 174.464 348.36 174.464 346.375 174.464C346.285 167.192 349.69 162.652 356.587 160.847ZM368.502 181.272C371.298 189.912 367.894 195.018 358.289 196.591C350.58 195.224 348.878 191.394 353.183 185.102C358.338 183.625 363.444 182.349 368.502 181.272Z" fill="#F9F9F9"/>
<path fill-rule="evenodd" clip-rule="evenodd" d="M402.542 160.847C417.327 159.317 425.27 165.984 426.372 180.847C425.034 197.535 416.24 204.06 399.989 200.421C392.937 196.116 389.248 189.733 388.926 181.272C389.283 171.431 393.822 164.623 402.542 160.847ZM405.096 165.953C411.983 165.78 416.664 168.9 419.138 175.315C420.292 181.337 419.441 187.011 416.585 192.336C411.383 197.29 405.851 197.716 399.989 193.612C394.824 186.119 394.399 178.317 398.713 170.209C400.777 168.547 402.905 167.129 405.096 165.953Z" fill="#F9F9F9"/>
<path fill-rule="evenodd" clip-rule="evenodd" d="M472.33 213.612C470.06 213.612 467.791 213.612 465.521 213.612C465.521 196.307 465.521 179.002 465.521 161.698C467.507 161.698 469.493 161.698 471.479 161.698C471.341 163.423 471.483 165.125 471.904 166.804C473.75 163.817 476.445 161.973 479.989 161.272C494.107 160.204 501.483 166.871 502.116 181.272C500.74 198.421 491.946 204.521 475.734 199.569C474.741 198.576 473.749 197.584 472.755 196.591C472.33 202.257 472.189 207.931 472.33 213.612ZM481.691 165.953C491.086 166.557 495.909 171.664 496.159 181.272C496.202 189.869 492.088 194.975 483.819 196.591C478.042 195.918 474.354 192.798 472.755 187.229C471.464 180.686 472.457 174.587 475.734 168.932C477.798 167.9 479.784 166.907 481.691 165.953Z" fill="#F9F9F9"/>
<path fill-rule="evenodd" clip-rule="evenodd" d="M525.092 160.847C540.632 159.935 548.008 167.31 547.219 182.974C537.857 182.974 528.496 182.974 519.134 182.974C520.201 194.565 526.158 198.395 537.006 194.463C538.952 192.701 540.37 190.574 541.261 188.08C542.934 187.406 544.636 186.839 546.368 186.378C546.848 194.286 543.159 199.251 535.304 201.271C524.11 203.267 516.876 198.87 513.602 188.08C512.243 180.545 513.378 173.453 517.007 166.804C519.381 164.281 522.076 162.295 525.092 160.847ZM528.496 165.953C536.017 166.381 540.272 170.353 541.261 177.868C533.885 177.868 526.51 177.868 519.134 177.868C519.766 171.855 522.886 167.883 528.496 165.953Z" fill="#F9F9F9"/>
<path fill-rule="evenodd" clip-rule="evenodd" d="M589.773 160.847C595.077 160.37 600.183 161.078 605.092 162.975C607.617 164.762 609.177 167.174 609.773 170.208C610.198 178.43 610.34 186.657 610.198 194.889C611.617 194.889 613.035 194.889 614.454 194.889C614.591 196.614 614.449 198.316 614.028 199.995C609.148 202.02 605.744 200.601 603.815 195.74C601.93 198.741 599.234 200.586 595.731 201.271C580.993 203.099 575.745 196.999 579.986 182.974C581.902 181.377 584.03 180.1 586.369 179.144C591.475 178.293 596.582 177.442 601.688 176.591C604.818 173.39 604.534 170.269 600.837 167.23C596.437 165.363 592.182 165.647 588.071 168.081C586.474 169.89 585.623 172.018 585.518 174.464C583.533 174.464 581.546 174.464 579.561 174.464C580.106 167.669 583.51 163.13 589.773 160.847ZM602.539 181.272C605.244 190.133 601.698 195.239 591.901 196.591C584.994 195.667 582.866 192.121 585.518 185.953C591.112 183.754 596.785 182.193 602.539 181.272Z" fill="#F9F9F9"/>
<path fill-rule="evenodd" clip-rule="evenodd" d="M817 199.144C817 199.712 817 200.278 817 200.846C812.988 201.124 809.017 200.84 805.085 199.995C804.823 199.307 804.398 198.74 803.809 198.293C797.394 202.181 790.727 202.607 783.809 199.569C777.001 193.045 777.001 186.52 783.809 179.995C790.103 177.988 796.486 176.427 802.958 175.315C804.097 171.205 802.536 169.22 798.277 169.357C794.278 168.922 792.293 170.624 792.32 174.464C788.348 174.464 784.377 174.464 780.405 174.464C780.388 168.403 783.225 164.29 788.916 162.124C796.806 160.021 804.466 160.588 811.894 163.826C813.212 164.859 814.204 166.135 814.872 167.655C815.156 176.449 815.44 185.244 815.723 194.038C815.886 195.917 816.312 197.619 817 199.144ZM798.277 183.825C799.979 183.825 801.681 183.825 803.383 183.825C803.752 191.739 800.063 194.576 792.32 192.336C790.107 190.173 790.107 188.045 792.32 185.953C794.385 185.185 796.371 184.475 798.277 183.825Z" fill="#F9F9F9"/>
<path fill-rule="evenodd" clip-rule="evenodd" d="M283.396 161.698C285.666 161.698 287.935 161.698 290.205 161.698C290.205 174.747 290.205 187.797 290.205 200.846C287.935 200.846 285.666 200.846 283.396 200.846C283.396 187.797 283.396 174.747 283.396 161.698Z" fill="#F9F9F9"/>
<path fill-rule="evenodd" clip-rule="evenodd" d="M301.269 161.698C303.883 161.428 306.437 161.712 308.928 162.549C311.907 166.804 314.886 171.059 317.864 175.315C321.539 171.366 324.801 167.111 327.651 162.549C330.204 161.415 332.758 161.415 335.311 162.549C330.736 168.44 326.481 174.539 322.545 180.846C327.237 187.102 331.776 193.484 336.162 199.995C333.609 201.129 331.056 201.129 328.502 199.995C325.12 195.053 321.575 190.23 317.864 185.527C314.214 190.416 310.668 195.381 307.226 200.42C304.974 200.843 302.705 200.986 300.418 200.846C300.291 199.951 300.432 199.1 300.844 198.293C305.656 192.639 310.053 186.681 314.035 180.421C309.342 174.426 305.087 168.185 301.269 161.698Z" fill="#F9F9F9"/>
<path fill-rule="evenodd" clip-rule="evenodd" d="M703.811 161.698C707.782 161.698 711.753 161.698 715.725 161.698C715.725 174.747 715.725 187.797 715.725 200.846C711.753 200.846 707.782 200.846 703.811 200.846C703.811 187.797 703.811 174.747 703.811 161.698Z" fill="#F9F9F9"/>
</svg>
