<svg width="427" height="427" viewBox="0 0 427 427" fill="none" xmlns="http://www.w3.org/2000/svg">
<path fill-rule="evenodd" clip-rule="evenodd" d="M213.41 0.00463615C213.502 -0.00843872 213.59 0.00612791 213.673 0.0485115C218.9 4.01766 224.15 7.95187 229.424 11.851C235.207 8.80613 240.984 5.7495 246.755 2.68104C246.843 2.62251 246.931 2.62251 247.018 2.68104C251.566 7.44731 256.158 12.1713 260.795 16.8528C267.008 14.7089 273.223 12.5736 279.442 10.447C279.51 10.4597 279.569 10.4889 279.618 10.5347C283.358 15.9553 287.145 21.3374 290.982 26.6809C297.47 25.503 303.963 24.3768 310.462 23.3025C313.369 29.1897 316.265 35.0835 319.15 40.9843C325.791 40.9823 332.43 40.8946 339.069 40.721C340.946 47.0538 342.877 53.3719 344.861 59.6752C351.404 60.6684 357.956 61.6045 364.517 62.4832C365.424 69.0399 366.36 75.5923 367.325 82.1394C373.632 84.091 379.935 86.0504 386.235 88.0187C386.17 94.3218 386.068 100.626 385.928 106.929C385.957 107.236 385.987 107.543 386.016 107.85C391.916 110.735 397.81 113.631 403.698 116.538C402.664 122.888 401.581 129.235 400.451 135.58C400.38 135.79 400.394 135.996 400.495 136.194C405.825 139.949 411.163 143.693 416.509 147.426C416.378 148.17 416.174 148.901 415.895 149.62C413.996 155.171 412.08 160.713 410.147 166.249C414.845 170.858 419.568 175.436 424.319 179.982C424.367 180.238 424.308 180.472 424.143 180.684C421.145 186.329 418.147 191.974 415.149 197.619C419.121 202.902 423.069 208.196 426.995 213.502C423.069 218.809 419.121 224.103 415.149 229.385C418.147 235.03 421.145 240.676 424.143 246.321C424.308 246.533 424.367 246.767 424.319 247.023C419.568 251.569 414.845 256.147 410.147 260.756C412.285 266.906 414.406 273.062 416.509 279.228C416.568 279.344 416.568 279.462 416.509 279.579C411.09 283.334 405.693 287.122 400.319 290.942C401.526 297.438 402.652 303.946 403.698 310.467C397.81 313.374 391.916 316.27 386.016 319.154C385.987 319.461 385.957 319.769 385.928 320.076C386.044 326.101 386.161 332.126 386.279 338.152C386.277 338.452 386.248 338.745 386.191 339.03C379.899 340.966 373.61 342.912 367.325 344.865C366.36 351.412 365.424 357.965 364.517 364.521C357.956 365.4 351.404 366.336 344.861 367.329C342.877 373.633 340.946 379.951 339.069 386.284C332.43 386.111 325.79 386.023 319.15 386.02C316.265 391.921 313.369 397.815 310.462 403.702C303.963 402.628 297.47 401.501 290.982 400.324C287.131 405.682 283.328 411.078 279.574 416.514C278.689 416.307 277.811 416.043 276.942 415.724C271.556 413.875 266.174 412.018 260.795 410.152C256.14 414.881 251.503 419.619 246.887 424.367C241.066 421.296 235.245 418.225 229.424 415.154C224.13 419.102 218.836 423.051 213.542 427C208.248 423.051 202.953 419.102 197.659 415.154C191.828 418.237 185.993 421.308 180.152 424.367C175.502 419.658 170.88 414.919 166.288 410.152C160.075 412.296 153.86 414.431 147.641 416.558C147.499 416.505 147.383 416.417 147.29 416.294C143.595 410.921 139.836 405.598 136.014 400.324C129.525 401.532 123.032 402.643 116.533 403.658C113.649 397.758 110.753 391.864 107.846 385.976C101.233 386.038 94.6226 386.126 88.014 386.24C86.0721 379.916 84.1126 373.598 82.1347 367.286C75.5885 366.367 69.0511 365.416 62.5224 364.434C61.6204 357.885 60.6697 351.347 59.6705 344.821C53.3841 342.892 47.0953 340.975 40.8041 339.074C40.8999 332.434 40.973 325.794 41.0235 319.154C35.1257 316.235 29.2172 313.339 23.2978 310.467C24.4189 303.946 25.5303 297.423 26.6324 290.899C21.234 287.079 15.8374 283.262 10.4423 279.447C12.5776 273.217 14.7129 266.986 16.8482 260.756C12.1135 256.139 7.37493 251.517 2.63252 246.891C5.71582 241.061 8.7871 235.226 11.8464 229.385C7.92004 224.079 3.97125 218.785 0 213.502C3.97125 208.22 7.92004 202.926 11.8464 197.619C8.7871 191.779 5.71582 185.943 2.63252 180.113C7.37493 175.488 12.1135 170.866 16.8482 166.249C14.7129 160.018 12.5776 153.788 10.4423 147.558C15.8374 143.743 21.234 139.926 26.6324 136.106C25.5303 129.582 24.4189 123.058 23.2978 116.538C29.2172 113.666 35.1257 110.77 41.0235 107.85C40.973 101.21 40.8999 94.571 40.8041 87.9309C47.0953 86.0294 53.3841 84.1129 59.6705 82.1833C60.6697 75.6572 61.6204 69.1198 62.5224 62.571C69.0511 61.5881 75.5885 60.6375 82.1347 59.7191C84.1144 53.4286 86.0598 47.1252 87.9702 40.8088C88.0483 40.7578 88.136 40.7285 88.2334 40.721C94.7691 40.8833 101.307 40.9857 107.846 41.0281C110.753 35.1409 113.649 29.2471 116.533 23.3463C123.032 24.3613 129.525 25.4727 136.014 26.6809C139.836 21.4068 143.595 16.0832 147.29 10.7102C147.383 10.5875 147.499 10.4997 147.641 10.447C153.86 12.5736 160.075 14.7089 166.288 16.8528C170.88 12.0852 175.502 7.34666 180.152 2.63716C185.993 5.69642 191.828 8.76769 197.659 11.851C202.937 7.93283 208.188 3.98405 213.41 0.00463615Z" fill="#F9F9F9"/>
<path fill-rule="evenodd" clip-rule="evenodd" d="M97.2285 74.5928C102.465 74.5928 107.7 74.5928 112.936 74.5928C112.936 152.983 112.936 231.374 112.936 309.765C107.7 309.765 102.465 309.765 97.2285 309.765C97.2285 231.374 97.2285 152.983 97.2285 74.5928Z" fill="#323232"/>
<path fill-rule="evenodd" clip-rule="evenodd" d="M200.688 74.5928C205.924 74.5928 211.159 74.5928 216.395 74.5928C216.395 152.983 216.395 231.374 216.395 309.765C211.159 309.765 205.924 309.765 200.688 309.765C200.688 231.374 200.688 152.983 200.688 74.5928Z" fill="#323232"/>
<path fill-rule="evenodd" clip-rule="evenodd" d="M311.605 134.79C318.25 134.536 323.325 137.198 326.83 142.775C329.541 147.933 329.57 153.11 326.918 158.307C323.469 163.988 318.394 166.694 311.693 166.424C305.599 165.653 301.227 162.508 298.574 156.991C296.199 150.95 297.019 145.393 301.031 140.318C303.857 137.142 307.382 135.3 311.605 134.79Z" fill="#343434"/>
<path fill-rule="evenodd" clip-rule="evenodd" d="M311.691 136.369C318.42 136.156 323.261 139.052 326.214 145.057C328.167 150.209 327.524 155.007 324.283 159.448C320.822 163.51 316.42 165.279 311.077 164.757C305.993 163.848 302.323 161.083 300.064 156.464C297.813 150.864 298.603 145.746 302.433 141.108C304.941 138.399 308.027 136.82 311.691 136.369Z" fill="#F9F9F9"/>
<path fill-rule="evenodd" clip-rule="evenodd" d="M306.603 141.196C306.603 146.899 306.603 152.603 306.603 158.307C307.333 158.307 308.065 158.307 308.796 158.307C308.052 158.394 307.291 158.424 306.515 158.395C306.486 152.647 306.515 146.914 306.603 141.196Z" fill="#4B4444"/>
<path fill-rule="evenodd" clip-rule="evenodd" d="M306.602 141.196C309.497 141.181 312.393 141.196 315.289 141.239C318.9 141.428 320.523 143.315 320.159 146.899C319.869 148.225 319.123 149.205 317.921 149.839C317.152 150.156 316.362 150.404 315.552 150.585C316.533 151.141 317.367 151.873 318.053 152.779C319.255 154.61 320.44 156.453 321.607 158.307C320.672 158.41 319.736 158.424 318.799 158.351C317.478 156.211 316.089 154.12 314.631 152.077C314.074 151.44 313.387 151.016 312.569 150.804C311.311 150.76 310.054 150.745 308.795 150.76C308.795 153.276 308.795 155.791 308.795 158.307C308.064 158.307 307.333 158.307 306.602 158.307C306.602 152.603 306.602 146.899 306.602 141.196Z" fill="#333333"/>
<path fill-rule="evenodd" clip-rule="evenodd" d="M308.795 143.126C311.138 143.088 313.477 143.132 315.815 143.258C317.62 143.898 318.248 145.142 317.702 146.987C317.301 147.885 316.614 148.426 315.639 148.611C313.361 148.737 311.08 148.781 308.795 148.742C308.795 146.87 308.795 144.998 308.795 143.126Z" fill="#F9F9F9"/>
<path fill-rule="evenodd" clip-rule="evenodd" d="M153.038 168.662C159.456 168.407 165.803 168.948 172.08 170.285C175.539 171.068 178.845 172.266 181.996 173.883C184.071 174.987 185.754 176.522 187.042 178.49C187.64 179.523 187.991 180.635 188.095 181.824C188.183 215.084 188.153 248.341 188.007 281.597C187.691 283.106 187.047 284.451 186.077 285.633C183.933 287.84 181.402 289.464 178.486 290.504C172.626 292.646 166.571 293.815 160.322 294.014C154.757 294.298 149.228 293.976 143.737 293.048C140.316 292.44 137.011 291.446 133.821 290.065C131.565 289.033 129.561 287.643 127.81 285.897C126.607 284.573 125.846 283.023 125.528 281.246C125.47 248.076 125.47 214.906 125.528 181.737C125.865 179.587 126.815 177.759 128.38 176.252C131.386 173.711 134.808 171.926 138.647 170.899C141.586 170.089 144.57 169.504 147.598 169.144C149.423 168.964 151.237 168.803 153.038 168.662Z" fill="#323232"/>
<path fill-rule="evenodd" clip-rule="evenodd" d="M275.8 218.416C275.805 218.464 275.834 218.494 275.888 218.504C276.005 207.579 276.005 196.669 275.888 185.773C275.491 179.289 272.127 175.326 265.796 173.883C263.902 173.496 261.985 173.334 260.049 173.4C257.013 173.278 254.103 173.82 251.318 175.024C247.978 176.711 245.887 179.387 245.043 183.053C244.797 184.092 244.665 185.145 244.649 186.212C244.561 189.209 244.532 192.223 244.561 195.25C239.355 195.25 234.147 195.25 228.941 195.25C228.926 190.687 228.941 186.124 228.985 181.561C229.288 179.874 229.99 178.383 231.091 177.086C233.459 174.665 236.252 172.896 239.471 171.777C245.409 169.744 251.523 168.72 257.811 168.706C264.092 168.48 270.294 169.064 276.414 170.461C279.628 171.268 282.699 172.438 285.628 173.971C287.581 175.017 289.176 176.465 290.411 178.314C291.082 179.422 291.492 180.62 291.639 181.912C291.698 214.79 291.698 247.666 291.639 280.544C291.328 283.256 290.115 285.465 287.997 287.169C285.726 288.846 283.24 290.133 280.539 291.03C274.958 292.889 269.224 293.884 263.339 294.014C257.194 294.296 251.111 293.829 245.087 292.61C241.347 291.851 237.837 290.505 234.557 288.573C232.791 287.45 231.313 286.031 230.126 284.317C229.502 283.227 229.122 282.057 228.985 280.807C228.926 263.404 228.926 245.999 228.985 228.595C229.453 226.241 230.608 224.297 232.451 222.76C235.438 220.456 238.773 218.817 242.455 217.846C249.156 216.101 255.972 215.399 262.901 215.74C266.777 215.855 270.55 216.527 274.221 217.758C274.752 217.97 275.279 218.189 275.8 218.416Z" fill="#323232"/>
<path fill-rule="evenodd" clip-rule="evenodd" d="M154.179 173.4C157.042 173.251 159.879 173.441 162.691 173.97C168.951 175.582 172.213 179.633 172.475 186.124C172.534 216.222 172.534 246.321 172.475 276.42C172.368 278.867 171.754 281.177 170.633 283.352C169.38 285.423 167.64 286.929 165.412 287.871C162.506 288.987 159.493 289.499 156.373 289.407C154.139 289.38 151.945 289.073 149.792 288.485C145.286 287.051 142.522 284.023 141.499 279.403C141.341 278.443 141.225 277.478 141.148 276.507C141.062 245.969 141.091 215.432 141.236 184.895C142.043 178.706 145.51 175.006 151.635 173.795C152.5 173.698 153.348 173.566 154.179 173.4Z" fill="#F9F9F9"/>
<path fill-rule="evenodd" clip-rule="evenodd" d="M275.889 185.773C276.005 196.669 276.005 207.579 275.889 218.504C275.835 218.493 275.806 218.464 275.801 218.416C275.889 207.55 275.917 196.669 275.889 185.773Z" fill="#E5E5E5"/>
<path fill-rule="evenodd" clip-rule="evenodd" d="M244.651 186.212C244.651 189.254 244.651 192.296 244.651 195.338C239.4 195.367 234.165 195.338 228.943 195.25C234.15 195.25 239.357 195.25 244.563 195.25C244.534 192.223 244.563 189.209 244.651 186.212Z" fill="#777377"/>
<path fill-rule="evenodd" clip-rule="evenodd" d="M257.724 220.435C259.362 220.42 261 220.435 262.638 220.478C264.853 220.641 266.988 221.138 269.043 221.97C272.929 223.841 275.167 226.926 275.756 231.228C275.832 231.723 275.891 232.22 275.932 232.72C275.991 247.433 275.991 262.145 275.932 276.858C275.797 279.233 275.153 281.456 274.001 283.527C272.235 286.176 269.793 287.887 266.674 288.661C262.651 289.576 258.614 289.635 254.564 288.836C248.554 287.417 245.263 283.629 244.693 277.473C244.634 262.379 244.634 247.286 244.693 232.193C245.362 226.04 248.712 222.281 254.74 220.917C255.74 220.71 256.735 220.549 257.724 220.435Z" fill="#F9F9F9"/>
<path fill-rule="evenodd" clip-rule="evenodd" d="M286.332 321.787C285.132 321.787 283.934 321.787 282.734 321.787C282.734 323.162 282.734 324.536 282.734 325.911C283.934 325.911 285.132 325.911 286.332 325.911C285.119 325.999 283.891 326.028 282.646 325.999C282.646 324.566 282.646 323.132 282.646 321.699C283.891 321.67 285.119 321.699 286.332 321.787Z" fill="#454245"/>
<path fill-rule="evenodd" clip-rule="evenodd" d="M286.332 321.787C286.332 323.162 286.332 324.536 286.332 325.911C285.133 325.911 283.934 325.911 282.734 325.911C282.734 324.536 282.734 323.162 282.734 321.787C283.934 321.787 285.133 321.787 286.332 321.787Z" fill="#313231"/>
<path fill-rule="evenodd" clip-rule="evenodd" d="M275.187 322.401C275.275 324.931 275.304 327.476 275.275 330.035C276.503 330.035 277.732 330.035 278.96 330.035C278.96 331.001 278.96 331.966 278.96 332.931C277.732 332.931 276.503 332.931 275.275 332.931C275.26 337.67 275.275 342.408 275.319 347.147C275.383 347.913 275.778 348.424 276.503 348.682C277.354 348.747 278.202 348.732 279.048 348.639C279.231 349.716 279.376 350.798 279.487 351.885C277.886 352.275 276.277 352.319 274.661 352.017C273.321 351.642 272.399 350.809 271.897 349.516C271.751 348.704 271.663 347.884 271.633 347.059C271.589 342.35 271.574 337.641 271.589 332.931C270.683 332.931 269.776 332.931 268.869 332.931C268.869 331.966 268.869 331.001 268.869 330.035C269.776 330.035 270.683 330.035 271.589 330.035C271.574 328.222 271.589 326.408 271.633 324.595C272.833 323.875 274.017 323.144 275.187 322.401Z" fill="#323232"/>
<path fill-rule="evenodd" clip-rule="evenodd" d="M154.091 329.597C155.898 329.433 157.653 329.653 159.356 330.255C162.071 331.483 163.679 333.574 164.182 336.529C162.949 336.642 161.721 336.789 160.497 336.968C159.616 333.469 157.392 332.079 153.828 332.799C151.386 333.654 149.939 335.365 149.484 337.933C149.149 340.226 149.208 342.507 149.659 344.777C150.82 348.452 153.291 349.899 157.074 349.121C158.617 348.66 159.685 347.681 160.277 346.181C160.551 345.442 160.742 344.681 160.848 343.9C162.038 344.113 163.237 344.259 164.445 344.339C163.953 348.326 161.788 350.915 157.952 352.105C154.539 352.908 151.468 352.235 148.738 350.086C146.808 348.14 145.741 345.786 145.535 343.022C145.25 340.378 145.543 337.805 146.413 335.3C147.888 331.938 150.447 330.037 154.091 329.597Z" fill="#323232"/>
<path fill-rule="evenodd" clip-rule="evenodd" d="M175.151 329.597C178.887 329.169 182.002 330.339 184.496 333.107C185.845 334.928 186.606 336.976 186.778 339.249C186.939 341.733 186.646 344.161 185.9 346.533C184.415 349.799 181.885 351.715 178.31 352.28C174.728 352.88 171.642 351.929 169.052 349.428C167.528 347.636 166.65 345.56 166.419 343.198C166.113 340.819 166.289 338.479 166.946 336.178C168.375 332.342 171.11 330.149 175.151 329.597Z" fill="#333333"/>
<path fill-rule="evenodd" clip-rule="evenodd" d="M196.737 329.597C198.871 329.406 200.948 329.655 202.967 330.342C205.428 331.298 206.773 333.097 207.004 335.739C205.83 335.858 204.66 336.003 203.494 336.178C202.947 333.92 201.514 332.735 199.194 332.624C197.957 332.477 196.758 332.623 195.596 333.063C194.407 333.614 193.837 334.535 193.885 335.827C194.301 336.915 195.076 337.602 196.21 337.889C198.742 338.566 201.257 339.297 203.757 340.083C206.865 341.174 208.196 343.352 207.75 346.62C207.238 348.916 205.908 350.539 203.757 351.49C201.128 352.469 198.438 352.673 195.684 352.105C192.144 351.199 190.184 348.946 189.805 345.348C191.002 345.165 192.201 345.005 193.402 344.865C193.696 347.339 195.071 348.816 197.527 349.297C198.492 349.355 199.457 349.355 200.423 349.297C202.164 349.133 203.349 348.241 203.976 346.62C204.263 345.43 203.897 344.509 202.88 343.856C202.073 343.529 201.254 343.237 200.423 342.979C198.187 342.478 195.993 341.835 193.841 341.048C191.15 339.784 189.995 337.664 190.375 334.686C190.972 332.451 192.361 330.945 194.543 330.167C195.279 329.948 196.01 329.757 196.737 329.597Z" fill="#333333"/>
<path fill-rule="evenodd" clip-rule="evenodd" d="M215.516 330.035C215.487 331.061 215.516 332.084 215.604 333.107C215.658 333.096 215.687 333.066 215.692 333.019C217.583 330.32 220.186 329.194 223.502 329.641C225.827 329.934 227.465 331.147 228.416 333.282C231.297 329.447 234.924 328.554 239.297 330.606C240.986 331.922 241.849 333.663 241.885 335.827C241.929 341.209 241.944 346.591 241.929 351.973C240.701 351.973 239.472 351.973 238.244 351.973C238.259 346.796 238.244 341.618 238.2 336.441C237.982 334.016 236.652 332.787 234.207 332.756C230.982 333.071 229.241 334.855 228.986 338.108C228.942 342.73 228.927 347.351 228.942 351.973C227.714 351.973 226.485 351.973 225.257 351.973C225.298 346.589 225.254 341.207 225.125 335.827C224.549 333.409 223.014 332.399 220.518 332.8C218.345 333.217 216.956 334.49 216.35 336.617C216.183 337.34 216.066 338.071 215.999 338.81C215.955 343.198 215.94 347.586 215.955 351.973C214.727 351.973 213.498 351.973 212.27 351.973C212.27 344.661 212.27 337.348 212.27 330.035C213.351 330.035 214.434 330.035 215.516 330.035Z" fill="#323232"/>
<path fill-rule="evenodd" clip-rule="evenodd" d="M266.325 341.882C260.884 341.882 255.444 341.882 250.003 341.882C249.979 342.049 250.007 342.196 250.091 342.32C250.162 344.671 251.069 346.616 252.811 348.156C254.648 349.403 256.637 349.695 258.778 349.033C259.788 348.638 260.622 348.009 261.279 347.147C261.726 346.473 262.092 345.756 262.376 344.997C263.68 344.999 264.967 345.145 266.237 345.436C265.014 349.554 262.264 351.865 257.988 352.368C254.253 352.839 251.109 351.713 248.555 348.99C246.836 346.663 246.06 344.045 246.23 341.136C246.077 338.131 246.882 335.426 248.643 333.019C251.56 329.879 255.114 328.841 259.305 329.904C262.668 330.986 264.848 333.223 265.842 336.617C266.283 338.344 266.443 340.099 266.325 341.882Z" fill="#323232"/>
<path fill-rule="evenodd" clip-rule="evenodd" d="M299.318 329.597C301.281 329.407 303.183 329.655 305.022 330.343C307.598 331.618 309.12 333.681 309.585 336.529C308.467 336.618 307.355 336.764 306.251 336.968C306.163 336.939 306.075 336.909 305.987 336.88C305.005 333.428 302.753 332.068 299.231 332.8C297.458 333.402 296.186 334.557 295.413 336.266C294.452 339.326 294.423 342.398 295.326 345.48C296.483 348.406 298.633 349.678 301.775 349.297C303.944 348.883 305.333 347.611 305.943 345.48C306.097 344.962 306.199 344.435 306.251 343.9C307.478 344.076 308.707 344.251 309.936 344.427C309.202 348.92 306.598 351.567 302.126 352.368C298.573 352.812 295.604 351.715 293.22 349.077C291.816 347.119 291.056 344.925 290.938 342.496C290.683 339.894 291.034 337.378 291.991 334.949C292.947 332.794 294.512 331.259 296.686 330.343C297.551 330.009 298.428 329.761 299.318 329.597Z" fill="#333333"/>
<path fill-rule="evenodd" clip-rule="evenodd" d="M318.887 329.597C321.408 329.363 323.807 329.787 326.083 330.869C327.377 331.657 328.24 332.783 328.671 334.247C328.791 334.743 328.893 335.241 328.978 335.739C327.8 335.822 326.629 335.967 325.468 336.178C324.924 333.923 323.49 332.738 321.168 332.624C320.002 332.499 318.862 332.617 317.746 332.975C316.847 333.378 316.218 334.036 315.86 334.949C315.76 336.052 316.184 336.886 317.132 337.45C317.463 337.645 317.814 337.792 318.185 337.889C321.026 338.612 323.834 339.46 326.609 340.434C329.256 341.795 330.266 343.945 329.636 346.883C329.019 349.227 327.571 350.821 325.293 351.666C322.541 352.56 319.763 352.648 316.956 351.929C313.957 350.893 312.202 348.801 311.691 345.655C311.698 345.544 311.727 345.441 311.779 345.348C312.973 345.136 314.171 344.976 315.377 344.865C315.673 347.34 317.047 348.817 319.501 349.297C320.379 349.355 321.256 349.355 322.134 349.297C323.46 349.212 324.557 348.67 325.424 347.673C326.137 346.603 326.166 345.521 325.512 344.426C325.317 344.205 325.098 344.015 324.854 343.856C322.816 343.12 320.74 342.506 318.624 342.013C316.969 341.625 315.448 340.952 314.061 339.995C312.7 338.661 312.099 337.038 312.262 335.125C312.821 332.46 314.415 330.749 317.044 329.991C317.665 329.827 318.279 329.696 318.887 329.597Z" fill="#333333"/>
<path fill-rule="evenodd" clip-rule="evenodd" d="M215.517 330.035C215.575 331.03 215.633 332.025 215.692 333.019C215.687 333.066 215.658 333.096 215.604 333.107C215.517 332.084 215.488 331.061 215.517 330.035Z" fill="#696969"/>
<path fill-rule="evenodd" clip-rule="evenodd" d="M282.646 330.035C283.875 330.035 285.104 330.035 286.332 330.035C286.332 337.348 286.332 344.661 286.332 351.973C285.104 351.973 283.875 351.973 282.646 351.973C282.646 344.661 282.646 337.348 282.646 330.035Z" fill="#323232"/>
<path fill-rule="evenodd" clip-rule="evenodd" d="M175.416 332.668C179.814 332.493 182.314 334.599 182.918 338.986C183.161 341.236 182.927 343.429 182.216 345.567C180.744 348.607 178.331 349.821 174.977 349.209C172.414 348.346 170.879 346.576 170.37 343.9C170.152 342.269 170.093 340.631 170.194 338.986C170.458 336.181 171.847 334.178 174.362 332.975C174.728 332.888 175.079 332.785 175.416 332.668Z" fill="#F9F9F9"/>
<path fill-rule="evenodd" clip-rule="evenodd" d="M262.375 338.284C262.375 338.459 262.375 338.635 262.375 338.81C258.339 338.81 254.302 338.81 250.266 338.81C250.439 335.639 252.048 333.607 255.092 332.712C258.221 332.207 260.489 333.362 261.893 336.178C262.165 336.855 262.325 337.557 262.375 338.284Z" fill="#F9F9F9"/>
<path fill-rule="evenodd" clip-rule="evenodd" d="M262.375 338.284C262.46 338.469 262.489 338.674 262.463 338.898C258.383 338.927 254.316 338.898 250.266 338.81C254.302 338.81 258.339 338.81 262.375 338.81C262.375 338.635 262.375 338.459 262.375 338.284Z" fill="#D6D6D6"/>
<path fill-rule="evenodd" clip-rule="evenodd" d="M266.324 341.882C260.928 341.969 255.517 341.998 250.09 341.969C250.09 342.086 250.09 342.204 250.09 342.32C250.007 342.196 249.978 342.049 250.003 341.882C255.443 341.882 260.884 341.882 266.324 341.882Z" fill="#837D83"/>
</svg>
