<svg width="424" height="255" viewBox="0 0 424 255" fill="none" xmlns="http://www.w3.org/2000/svg">
<path d="M64.8281 47.1013C64.8281 47.1013 47.1434 41.3438 38.2015 41.3438C29.5825 41.3438 22.926 44.523 22.926 48.3433C22.926 53.5866 29.7316 56.2913 34.1527 58.0426C42.4239 61.3783 51.5148 64.2423 59.4879 69.4956C66.4675 74.0955 71.5098 80.1464 71.5098 89.3713C71.5098 97.4835 68.256 103.999 61.9223 109.247C52.6576 116.403 40.6357 118.31 28.9366 118.31C17.8834 118.31 11.0779 116.567 0.670652 113.383V103.199C0.670652 103.199 18.5294 108.45 28.9366 108.45C34.4508 108.45 48.4347 107.136 48.4347 97.799C48.4347 92.866 43.3927 90.3225 38.8472 88.415C32.0167 86.0306 25.3599 83.1666 18.3803 80.3077C7.0043 75.6904 0 67.7468 0 56.1326C0.173766 48.979 3.25385 43.0948 9.58779 38.6439C16.0952 34.0314 24.3914 31.4877 34.4508 31.4877C44.0386 31.4877 53.3033 33.2316 64.8281 37.0516V47.1013Z" fill="#050607"/>
<path d="M136.652 107.314L135.687 108.769C133.071 112.591 126.9 118.313 114.075 118.313C96.0444 118.313 80.1212 110.521 80.4262 90.4813C80.7561 74.9037 93.7588 66.3125 108.869 63.6078L135.839 60.1083V54.0592C135.839 43.7306 122.024 41.5034 113.263 41.5034C105.314 41.5034 88.2479 45.991 88.2479 45.991V35.7768C98.152 33.2322 108.539 31.4849 119.434 31.4849C127.23 31.4849 136.499 32.5974 144.296 35.7768C154.378 39.9112 162.328 47.5452 162.328 60.5859V116.568H146.099C140.867 116.568 136.652 112.423 136.652 107.314ZM119.611 108.449C125.605 108.449 131.954 102.887 135.839 96.0455V68.8545C130.481 70.1345 124.64 70.927 118.773 73.469C112.45 76.4912 108.209 82.2178 108.056 92.3939C107.904 104.002 113.085 108.934 119.611 108.449Z" fill="#050607"/>
<path d="M271.788 31.4862C299.755 31.4862 319.391 48.4985 319.391 74.9024C319.391 101.296 299.755 118.313 271.788 118.313C243.846 118.313 224.184 101.296 224.184 74.9024C224.184 48.4985 243.846 31.4862 271.788 31.4862ZM271.788 108.452C284.465 108.452 291.768 95.7339 291.768 74.9024C291.768 54.0627 284.465 41.3497 271.788 41.3497C259.107 41.3497 251.966 54.0627 251.966 74.9024C251.966 95.7339 259.107 108.452 271.788 108.452Z" fill="#050607"/>
<path d="M350.883 33.2341C354.901 33.2341 358.189 36.4394 358.189 40.394V41.3455H358.998C365.656 35.7762 372.825 31.482 385.174 31.482C403.828 31.482 416.849 41.9818 416.849 61.5418V116.569H398.166C393.745 116.569 390.188 113.078 390.188 108.776V57.4066C390.188 51.0392 388.731 41.6663 379.969 41.6663C372.314 41.6663 364.066 49.4568 358.998 55.0236V116.569H332.365V33.2341H350.883Z" fill="#050607"/>
<path d="M235.244 142.143C239.958 142.143 243.686 145.8 243.686 150.414C243.686 155.026 239.958 158.527 235.244 158.527C230.505 158.527 226.934 155.026 226.934 150.414C226.934 145.8 230.505 142.143 235.244 142.143ZM241.9 175.848V252.19H228.563V168.859H234.727C238.688 168.859 241.9 171.992 241.9 175.848Z" fill="#050607"/>
<path d="M278.283 252.19H264.949V168.86H270.321C274.367 168.86 277.621 172.061 277.621 176.017H278.283C287.226 170.445 295.506 167.111 306.565 167.111C322.15 167.595 335.299 177.294 335.299 195.1V252.19H328.604C324.952 252.19 321.991 249.288 321.991 245.71V193.986C321.991 183.009 315.48 173.321 303.127 173.321C295.162 173.321 286.088 178.085 278.283 183.808V252.19Z" fill="#050607"/>
<path d="M222.065 107.729C219.799 108.502 216.551 109.252 212.456 109.252C205.318 109.252 202.408 102.796 202.408 98.1819V7.15695C202.408 3.1998 199.137 0.000183105 195.066 0.000183105H175.744V87.3025C175.744 109.891 187.956 118.629 208.436 118.629C213.047 118.629 217.968 117.46 222.065 115.842V107.729Z" fill="#050607"/>
<path d="M218.494 246.937C204.567 252.19 193.962 245.321 193.962 232.63V142.782C193.962 138.83 190.669 135.631 186.651 135.631H180.629V230.455C180.629 248.902 197.259 258.044 218.494 252.775V246.937Z" fill="#050607"/>
<path d="M388.567 173.317L388.7 173.314C406.602 173.954 409.87 192.558 410.194 206.549H363.211C364.211 191.758 371.664 173.317 388.567 173.317ZM363.211 212.749H423.99C424.316 189.217 416.187 167.112 388.405 167.112C376.065 167.112 367.451 171.4 360.971 178.082C352.493 186.666 348.93 199.235 348.93 211.642C348.93 224.04 352.493 234.06 359.163 241.059C367.127 249.486 379.143 253.936 394.1 253.936C398.99 253.936 404.631 253.036 410.14 251.434V245.474C405.901 246.624 400.77 247.647 395.398 247.737C374.12 248.075 363.211 231.517 363.211 212.749Z" fill="#050607"/>
</svg>
